<?xml version="1.0" encoding="utf-8"?>
<!-- Generator: Adobe Illustrator 24.2.0, SVG Export Plug-In . SVG Version: 6.00 Build 0)  -->
<svg version="1.1" id="Layer_1" xmlns="http://www.w3.org/2000/svg" xmlns:xlink="http://www.w3.org/1999/xlink" x="0px" y="0px"
	 viewBox="0 0 18.57 16.79" style="enable-background:new 0 0 18.57 16.79;" xml:space="preserve">
<style type="text/css">
	.st0{fill:#FBBD3A;}
</style>
<g>
	<path class="st0" d="M7.62,10.78c0.08,0,0.2,0,0.32,0c2.74,0,5.49-0.01,8.23,0c1.86,0.01,2.79-1.71,2.23-3.3
		c-0.33-0.94-1.15-1.47-2.25-1.47c-2.76,0-5.51,0-8.27,0c-0.11,0-0.22,0-0.33,0c-0.01-0.03-0.03-0.07-0.04-0.1
		c0.1-0.08,0.22-0.16,0.31-0.25c0.71-0.72,1.43-1.44,2.13-2.17c0.52-0.55,0.69-1.2,0.43-1.92c-0.28-0.81-0.84-1.33-1.69-1.52
		C7.91-0.13,7.3,0.23,6.76,0.77c-2,2-4,4.01-6.01,6.01c-1.01,1-0.99,2.26,0,3.22c1.99,1.95,3.94,3.94,5.91,5.92
		c0.12,0.12,0.25,0.24,0.39,0.36c0.81,0.68,1.78,0.68,2.62,0c0.81-0.65,1.06-1.73,0.58-2.61c-0.14-0.26-0.34-0.48-0.55-0.7
		C9.02,12.23,8.31,11.51,7.62,10.78z"/>
	<path class="st0" d="M7.62,10.78c0.7,0.73,1.4,1.46,2.09,2.19c0.2,0.22,0.41,0.44,0.55,0.7c0.48,0.88,0.23,1.95-0.58,2.61
		c-0.84,0.68-1.81,0.68-2.62,0c-0.13-0.11-0.27-0.23-0.39-0.36C4.69,13.94,2.74,11.95,0.75,10c-0.98-0.96-1.01-2.22,0-3.22
		c2.01-2,4.01-4.01,6.01-6.01c0.54-0.54,1.15-0.9,1.95-0.72c0.84,0.19,1.4,0.71,1.69,1.52c0.25,0.72,0.09,1.38-0.43,1.92
		c-0.7,0.73-1.42,1.45-2.13,2.17C7.74,5.75,7.62,5.83,7.52,5.91c0.01,0.03,0.03,0.07,0.04,0.1c0.11,0,0.22,0,0.33,0
		c2.76,0,5.51,0,8.27,0c1.09,0,1.91,0.52,2.25,1.47c0.56,1.59-0.37,3.31-2.23,3.3c-2.74-0.01-5.49,0-8.23,0
		C7.82,10.78,7.7,10.78,7.62,10.78z"/>

</g>
</svg>
