<?xml version="1.0" encoding="utf-8"?>
<!-- Generator: Adobe Illustrator 24.2.0, SVG Export Plug-In . SVG Version: 6.00 Build 0)  -->
<svg version="1.1" id="Layer_1" xmlns="http://www.w3.org/2000/svg" xmlns:xlink="http://www.w3.org/1999/xlink" x="0px" y="0px"
	 viewBox="0 0 18.57 16.79" style="enable-background:new 0 0 18.57 16.79;" xml:space="preserve">
<style type="text/css">
	.st0{fill:#FBBD3A;}
</style>
<g>
	<path class="st0" d="M10.95,6.01c-0.08,0-0.2,0-0.32,0c-2.74,0-5.49,0.01-8.23,0C0.53,6-0.4,7.71,0.16,9.31
		c0.33,0.94,1.15,1.47,2.25,1.47c2.76,0,5.51,0,8.27,0c0.11,0,0.22,0,0.33,0c0.01,0.03,0.03,0.07,0.04,0.1
		c-0.1,0.08-0.22,0.16-0.31,0.25c-0.71,0.72-1.43,1.44-2.13,2.17c-0.52,0.55-0.69,1.2-0.43,1.92c0.28,0.81,0.84,1.33,1.69,1.52
		c0.8,0.18,1.41-0.18,1.95-0.72c2-2,4-4.01,6.01-6.01c1.01-1,0.99-2.26,0-3.22c-1.99-1.95-3.94-3.94-5.91-5.92
		c-0.12-0.12-0.25-0.24-0.39-0.36c-0.81-0.68-1.78-0.68-2.62,0C8.08,1.16,7.83,2.24,8.31,3.12c0.14,0.26,0.34,0.48,0.55,0.7
		C9.55,4.56,10.25,5.28,10.95,6.01z"/>
	<path class="st0" d="M10.95,6.01c-0.7-0.73-1.4-1.46-2.09-2.19c-0.2-0.22-0.41-0.44-0.55-0.7C7.83,2.24,8.08,1.16,8.89,0.51
		c0.84-0.68,1.81-0.68,2.62,0c0.13,0.11,0.27,0.23,0.39,0.36c1.97,1.97,3.92,3.97,5.91,5.92c0.98,0.96,1.01,2.22,0,3.22
		c-2.01,2-4.01,4.01-6.01,6.01c-0.54,0.54-1.15,0.9-1.95,0.72c-0.84-0.19-1.4-0.71-1.69-1.52C7.92,14.5,8.08,13.85,8.6,13.3
		c0.7-0.73,1.42-1.45,2.13-2.17c0.09-0.09,0.21-0.17,0.31-0.25c-0.01-0.03-0.03-0.07-0.04-0.1c-0.11,0-0.22,0-0.33,0
		c-2.76,0-5.51,0-8.27,0c-1.09,0-1.91-0.52-2.25-1.47C-0.4,7.71,0.53,6,2.39,6.01c2.74,0.01,5.49,0,8.23,0
		C10.74,6.01,10.86,6.01,10.95,6.01z"/>
</g>
</svg>
