<?xml version="1.0" encoding="utf-8"?>
<!-- Generator: Adobe Illustrator 24.2.0, SVG Export Plug-In . SVG Version: 6.00 Build 0)  -->
<svg version="1.1" id="Layer_1" xmlns="http://www.w3.org/2000/svg" xmlns:xlink="http://www.w3.org/1999/xlink" x="0px" y="0px"
	 viewBox="0 0 145.68 218.29" style="enable-background:new 0 0 145.68 218.29;" xml:space="preserve">
<style type="text/css">
	.st0{fill:#936037;}
	.st1{fill:#52875A;}
	.st2{fill:#9E5143;}
	.st3{fill:#FFFFFF;}
</style>
<g>
	<path class="st0" d="M77.77,121.95c-0.02-0.48-7.82-15.77-10.23-18.74c-2.41-2.98-6.33-14.28-5.24-22.28
		c1.08-8,1.75-5.97,1.75-5.97s0.06,0.72,2.08,0.39c0,0,1-0.93,1.06,2.96c0.06,3.89,1.18,20.39,9.2,26.14
		c5.26,6.88,11.22,18.54,11.22,18.54s-8.5,1.03-9.17,0C77.77,121.95,77.77,121.95,77.77,121.95z"/>
	<path class="st1" d="M25.92,102.7c-0.38-0.04,3.11-3.68,5.58-4.95s9.14-5.07,15.23-3.11s16.34,11.57,17.09,12.26
		c0.74,0.68-1.03,1.97-3.36,3.38c-2.33,1.41-12.43,6.52-16.29,3.62C40.31,111.01,27.75,102.88,25.92,102.7z"/>
	<g>
		<path class="st1" d="M71.56,74c0.56-0.16,13.11-4.89,18.18-18.18c5.07-13.29,4.91-30.81-2.25-34.27c0,0-4.42,9.57-8.29,13.03
			s-11.26,8.85-14.88,14.56C60.7,54.85,63,62.23,63.19,65.63c0.19,3.4,2.01,5.87,1.29,7.64C63.76,75.05,62.71,76.49,71.56,74z"/>
		<path class="st1" d="M28.52,56.47c0,0,7.48-3.23,15.28,1.44s11.83,17.86,12.47,23.81c0.4,3.3,2.41,6.24-7.16,3.08
			c-9.57-3.16-13.51-5.16-16.01-9.47s-7.58-16.18-7.98-17.06s0.18-1.37,0.18-1.37L28.52,56.47z"/>
		<path d="M76.93,101.47c0.81,1.86,1.5,3.78,2.44,5.56c2.38,4.47,4.71,8.98,7.43,13.24c0.8,1.25,2.82,2.39,4.3,2.43
			c9.88,0.21,19.76,0.11,29.87,0.11c0.67,3.52,1.01,6.61-2.22,10.49c-2.69,3.25-2.32,9.04-3.32,13.7
			c-2.14,10.02-4.22,20.06-6.48,30.06c-0.45,1.99-1.62,3.82-2.46,5.72c3.4-16.84,6.79-33.68,10.18-50.51l-0.13,0.13
			c1.9-2.36,4.78-4.44,2.06-8.28c-0.73,0-1.59,0-2.46,0c-17.38-0.01-34.75-0.13-52.13,0c-11.69,0.08-23.37,0.45-35.05,0.87
			c-1.3,0.05-3.02,0.99-3.69,2.05c-0.61,0.97-0.48,3.7,0.03,3.9c5.68,2.27,5.06,7.82,6.28,12.13c4.35,15.48,8.27,31.07,12.41,46.83
			c19.12,0,38.26,0.03,57.39-0.1c0.93-0.01,1.86-1.41,2.79-2.17c-0.3-0.57-0.6-1.14-0.91-1.7c-19.34,0-38.69,0-58.03,0
			c0-0.45,0-0.89,0-1.34c2.08-0.1,4.15-0.26,6.23-0.29c16.5-0.25,33-0.45,49.5-0.75c1.89-0.03,3.77-0.6,5.65-0.92
			c-0.24,2.96-0.49,5.93-0.77,9.41c-21.33,0-42.39,0-63.37,0c-4.92-18.15-9.73-35.9-14.56-53.65c-0.61-2.24-0.63-4.45-3.82-5.55
			c-1.11-0.38-0.68-5.26-0.97-8.35c17.8-5.19,35.32-2.28,53.46-2.06c-2.59-6.25-3.26-12.68-11.4-14.11
			c-2.79-0.49-5.45-3.22-7.63-5.45c-9.46-9.66-16.35-10.62-28.21-3.57c-0.58,0.34-2.26,2.59-3.21,3.1
			c7.05-9.03,21.34-11.77,29.45-3.99c2.55,2.45,5.12,4.89,7.83,7.17c0.87,0.73,2.2,0.92,3.22,1.32c-2.64-8.23-5.23-16.29-7.8-24.32
			c0.11-0.02,1.51-0.07,1.55-0.35c0.83-4.84,4.58-8.91,2.64-14.54c-4.28-12.39-2.21-19.01,8.02-27.01
			c7.17-5.6,13.32-11.76,14.53-21.36c7.81,3.05,11.54,17.71,8.03,30.02c-4.92,17.26-19.35,27.84-29.11,26.1
			C83.95,73,98.92,36.13,87.44,22.27c-2.45,10.01-9.7,15.9-17.08,21.65c-7.95,6.19-8.33,14.13-5.85,23.05
			c0.73,2.64,0.72,5.84-0.02,8.48c-3.03,10.84-1.35,20.6,5.14,29.8c3.74,5.3,6.88,11.02,10.72,17.27c0.71,0,2.6,0,6.23,0
			c-2.73-4.86-4.57-9.35-7.47-13.02c-5.67-7.19-10.93-14.46-12.27-23.78c-0.45-3.11-0.1-7.24,0.05-10.38
			c1.82,7.57,3.3,16.1,5.21,24.03c3.03-1.86,5.03-3.09,7.04-4.32c-1.32,1.37-2.74,2.66-3.87,4.17
			C75.11,99.44,76.34,100.7,76.93,101.47z"/>
		<path class="st1" d="M76.93,101.47c-0.59-0.78-1.82-2.04-1.65-2.25c1.13-1.51,2.54-2.81,3.87-4.17c2.09-0.54,4.19-1.08,6.28-1.61
			c1.37-1.82,2.52-3.89,4.17-5.4c3.19-2.91,6.28-6.8,10.11-7.92c6.61-1.93,13.75-2.06,20.67-2.94c0.42,0.41,0.83,0.83,1.25,1.24
			c-2.44,1.66-4.88,3.31-7.32,4.97c0.35,0.33,0.7,0.66,1.06,0.99c4.32-3.95,8.64-7.9,12.95-11.85c0.37,0.37,0.75,0.74,1.12,1.11
			c-1.58,3.14-2.97,6.39-4.79,9.4c-6.64,11-15.81,16.9-29.24,14.46c-3.27-0.59-6.75-0.51-10.07-0.15c-1.82,0.2-3.5,1.64-5.25,2.52
			C79.03,100.39,77.98,100.93,76.93,101.47z"/>
		<path d="M80.08,99.85c1.75-0.88,3.43-2.32,5.25-2.52c3.32-0.36,6.8-0.44,10.07,0.15c13.43,2.44,22.6-3.46,29.24-14.46
			c1.81-3,3.2-6.26,4.79-9.4c-0.37-0.37-0.75-0.74-1.12-1.11c-4.32,3.95-8.64,7.9-12.95,11.85c-0.35-0.33-0.7-0.66-1.06-0.99
			c2.44-1.66,4.88-3.31,7.32-4.97c-0.42-0.41-0.83-0.83-1.25-1.24c-6.92,0.88-14.06,1.01-20.67,2.94
			c-3.83,1.12-6.92,5.02-10.11,7.92c-1.66,1.51-2.8,3.58-4.17,5.4c4.03-11.29,9.88-15.29,21.27-16.55c6.74-0.74,13.3-3.16,19.92-4.9
			c1.77-0.47,3.47-1.2,6.34-2.22c-4.27,11.1-8.81,20.45-18.27,26.51c-6.98,4.47-14.56,3.14-22.16,2.72
			C88.41,98.76,84.23,99.53,80.08,99.85z"/>
		<path d="M56.47,86.01c-1.25-8.66-4.13-22.53-12.74-27.09c-5.69-3.02-11.8-2.86-18.57-1.32c3.99,7.4,6.32,15.86,11.83,20.76
			c5.22,4.64,13.76,5.56,20.81,8.1c-4.53-0.65-9.31-0.88-13.84-2.08c-7.77-2.04-12.74-7.14-14.97-15.05
			c-1.18-4.21-3.11-8.21-4.72-12.35c5.96-3.35,16.67-2.6,22.27,1.75C52.36,63.25,58.69,76.98,56.47,86.01z"/>
		<path d="M20.9,103.44c2.4-0.53,4.13-1.52,5.24-1.04c4.97,2.11,10.31,3.93,14.5,7.17c7.64,5.9,13.24,4.07,21.65-1.45
			c0.38-0.25,0.94-0.21,1.52-0.33c-3.57,7.18-15.02,10.57-21.91,5.15c-3.96-3.12-8.29-5.86-12.74-8.23
			C27.2,103.65,24.51,103.93,20.9,103.44z"/>
		<path class="st2" d="M116.68,132.27c-3.39,16.83-6.78,33.67-10.18,50.51c-0.01,0.01,0.13-0.15,0.12-0.15
			c-1.89,0.33-3.77,0.89-5.66,0.93c-16.5,0.3-33,0.5-49.5,0.75c-2.08,0.03-4.15,0.19-6.23,0.29c0,0.45,0,0.89,0,1.34
			c19.34,0,38.69,0,58.03,0c0.3,0.57,0.6,1.14,0.91,1.7c-0.93,0.76-1.85,2.16-2.79,2.17c-19.14,0.13-38.28,0.1-57.39,0.1
			c-4.14-15.76-8.06-31.36-12.41-46.83c-1.21-4.31-0.6-9.86-6.28-12.13c-0.51-0.2-0.64-2.93-0.03-3.9c0.67-1.06,2.39-2.01,3.69-2.05
			c11.68-0.42,23.37-0.78,35.05-0.87c17.38-0.13,34.75-0.01,52.13,0c0.87,0,1.73,0,2.46,0c2.72,3.84-0.17,5.92-2.07,8.28
			c-1.89-0.68-3.77-1.95-5.65-1.95c-24.32-0.07-48.65,0.04-72.97,0.15c-1.49,0.01-2.98,0.43-4.48,0.65
			c0.07,0.34,0.14,0.68,0.21,1.01C61.32,132.27,89,132.27,116.68,132.27z"/>
		<path d="M116.68,132.27c-27.68,0-55.36,0-83.04,0c-0.07-0.34-0.14-0.68-0.21-1.01c1.49-0.23,2.98-0.65,4.48-0.65
			c24.32-0.11,48.65-0.21,72.97-0.15c1.88,0.01,3.77,1.27,5.65,1.95C116.54,132.4,116.68,132.27,116.68,132.27z"/>
	</g>
	<path class="st3" d="M39.1,100.35"/>
</g>
</svg>
