<?xml version="1.0" encoding="utf-8"?>
<!-- Generator: Adobe Illustrator 24.2.0, SVG Export Plug-In . SVG Version: 6.00 Build 0)  -->
<svg version="1.1" id="Layer_1" xmlns="http://www.w3.org/2000/svg" xmlns:xlink="http://www.w3.org/1999/xlink" x="0px" y="0px"
	 viewBox="0 0 421.31 427.26" style="enable-background:new 0 0 421.31 427.26;" xml:space="preserve">
<style type="text/css">
	.st0{fill:#936037;}
	.st1{fill:#52875A;}
	.st2{fill:#9E5143;}
	.st3{fill:#FFFFFF;}
	.st4{fill:#FFFFFF;stroke:#000000;stroke-miterlimit:10;}
	.st5{fill:none;stroke:#000000;stroke-width:7;stroke-miterlimit:10;stroke-dasharray:8;}
</style>
<g>
	<path class="st0" d="M118.06,253.87c-0.03-1.19-16.23-39-21.24-46.36c-5.01-7.36-13.14-35.32-10.89-55.11s3.64-14.77,3.64-14.77
		s0.13,1.77,4.32,0.96c0,0,2.07-2.3,2.19,7.32s2.44,50.44,19.1,64.65c10.93,17.02,23.3,45.85,23.3,45.85s-17.65,2.54-19.04,0
		C118.06,253.87,118.06,253.87,118.06,253.87z"/>
	<path class="st1" d="M10.41,206.27c-0.79-0.09,6.45-9.1,11.59-12.24c5.14-3.13,18.98-12.54,31.63-7.69
		c12.65,4.85,33.93,28.63,35.47,30.32c1.54,1.69-2.13,4.87-6.98,8.36c-4.84,3.48-25.8,16.12-33.82,8.95
		C40.28,226.81,14.21,206.71,10.41,206.27z"/>
	<g>
		<path class="st1" d="M105.17,135.28c1.16-0.39,27.23-12.11,37.75-44.97c10.52-32.86,10.19-76.21-4.68-84.76
			c0,0-9.19,23.68-17.2,32.23S97.65,59.68,90.14,73.8c-7.52,14.13-2.75,32.37-2.34,40.79c0.41,8.42,4.18,14.52,2.67,18.9
			C88.97,137.87,86.79,141.45,105.17,135.28z"/>
		<path class="st1" d="M15.81,91.93c0,0,15.53-7.98,31.73,3.56s24.55,44.17,25.89,58.89c0.83,8.16,5.01,15.45-14.86,7.62
			s-28.06-12.76-33.24-23.42S9.59,98.57,8.76,96.39C7.92,94.2,9.13,93,9.13,93L15.81,91.93z"/>
		<path d="M116.31,203.24c1.68,4.59,3.1,9.35,5.08,13.75c4.94,11.06,9.79,22.22,15.43,32.76c1.66,3.09,5.85,5.92,8.92,6
			c20.51,0.53,41.03,0.27,62.01,0.27c1.39,8.71,2.09,16.34-4.6,25.95c-5.59,8.04-4.83,22.35-6.89,33.88
			c-4.44,24.79-8.76,49.62-13.46,74.34c-0.94,4.93-3.37,9.45-5.1,14.14c7.05-41.65,14.09-83.29,21.13-124.93l-0.28,0.33
			c3.94-5.83,9.93-10.99,4.28-20.48c-1.51,0-3.3,0-5.1,0c-36.08-0.03-72.15-0.31-108.23,0c-24.26,0.21-48.53,1.11-72.78,2.14
			c-2.69,0.12-6.26,2.45-7.65,5.08c-1.27,2.41-0.99,9.15,0.06,9.64c11.79,5.61,10.51,19.34,13.03,29.99
			c9.04,38.28,17.18,76.85,25.77,115.84c39.69,0,79.43,0.08,119.16-0.24c1.94-0.02,3.86-3.5,5.79-5.37
			c-0.63-1.41-1.25-2.81-1.88-4.22c-40.16,0-80.32,0-120.48,0c0-1.1,0-2.2-0.01-3.31c4.31-0.24,8.62-0.63,12.93-0.71
			c34.26-0.62,68.51-1.11,102.77-1.85c3.92-0.08,7.82-1.49,11.73-2.28c-0.5,7.33-1.01,14.67-1.6,23.27c-44.28,0-88.01,0-131.56,0
			c-10.22-44.88-20.2-88.8-30.23-132.71c-1.27-5.55-1.3-11.02-7.93-13.73c-2.31-0.95-1.4-13.01-2.02-20.66
			c36.96-12.84,73.34-5.65,111-5.09c-5.37-15.45-6.76-31.37-23.67-34.91c-5.79-1.21-11.31-7.97-15.84-13.49
			c-19.64-23.89-33.95-26.28-58.56-8.84c-1.2,0.85-4.7,6.41-6.66,7.66c14.64-22.34,44.31-29.1,61.14-9.86
			c5.3,6.06,10.63,12.1,16.25,17.73c1.81,1.81,4.56,2.27,6.68,3.26c-5.48-20.35-10.85-40.3-16.2-60.16
			c0.22-0.05,3.13-0.17,3.23-0.86c1.72-11.96,9.51-22.04,5.47-35.97c-8.88-30.65-4.59-47.02,16.65-66.81
			C118.98,38.96,131.75,23.74,134.25,0c16.2,7.55,23.96,43.8,16.67,74.25c-10.22,42.73-40.17,68.91-60.44,64.61
			c40.4-6.03,71.49-97.22,47.65-131.52C133.04,32.1,118,46.66,102.67,60.87c-16.51,15.31-17.3,34.94-12.15,57.02
			c1.52,6.53,1.5,14.43-0.04,20.97c-6.3,26.8-2.81,50.94,10.67,73.7c7.76,13.1,14.27,27.26,22.27,42.71c1.47,0,5.4,0,12.94,0
			c-5.67-12.02-9.5-23.13-15.5-32.2c-11.77-17.77-22.69-35.76-25.48-58.82c-0.93-7.68-0.2-17.92,0.1-25.67
			c3.78,18.71,6.86,39.81,10.82,59.44c6.29-4.6,10.45-7.64,14.61-10.69c-2.75,3.38-5.69,6.58-8.03,10.32
			C112.54,198.2,115.09,201.31,116.31,203.24z"/>
		<path class="st1" d="M116.31,203.24c-1.22-1.92-3.77-5.03-3.43-5.58c2.34-3.74,5.28-6.95,8.03-10.32
			c4.35-1.33,8.69-2.66,13.04-3.99c2.85-4.5,5.23-9.63,8.67-13.36c6.62-7.19,13.04-16.83,20.98-19.59
			c13.72-4.78,28.55-5.09,42.91-7.28c0.87,1.02,1.73,2.05,2.6,3.07c-5.07,4.1-10.14,8.19-15.2,12.29c0.73,0.81,1.46,1.63,2.19,2.44
			c8.96-9.77,17.93-19.54,26.89-29.31c0.78,0.91,1.55,1.83,2.33,2.74c-3.29,7.76-6.18,15.82-9.94,23.24
			c-13.79,27.2-32.83,41.8-60.71,35.77c-6.79-1.47-14.02-1.27-20.91-0.37c-3.78,0.49-7.28,4.06-10.9,6.24
			C120.68,200.55,118.49,201.89,116.31,203.24z"/>
		<path d="M122.86,199.21c3.62-2.18,7.12-5.74,10.9-6.24c6.89-0.9,14.12-1.1,20.91,0.37c27.88,6.03,46.92-8.56,60.71-35.77
			c3.76-7.42,6.65-15.47,9.94-23.24c-0.78-0.91-1.55-1.83-2.33-2.74c-8.96,9.77-17.93,19.54-26.89,29.31
			c-0.73-0.81-1.46-1.63-2.19-2.44c5.07-4.1,10.14-8.19,15.2-12.29c-0.87-1.02-1.73-2.05-2.6-3.07c-14.36,2.19-29.18,2.5-42.91,7.28
			c-7.94,2.77-14.37,12.41-20.98,19.59c-3.44,3.74-5.81,8.86-8.67,13.36c8.36-27.92,20.51-37.83,44.16-40.93
			c13.99-1.84,27.62-7.82,41.36-12.12c3.68-1.15,7.21-2.98,13.15-5.48c-8.87,27.44-18.29,50.57-37.93,65.56
			c-14.5,11.07-30.24,7.76-46.01,6.72C140.14,196.52,131.48,198.42,122.86,199.21z"/>
		<path d="M73.84,164.98c-2.59-21.42-8.58-55.71-26.45-67c-11.81-7.46-24.5-7.07-38.56-3.26c8.28,18.31,13.13,39.24,24.56,51.36
			c10.83,11.49,28.56,13.74,43.2,20.03c-9.4-1.6-19.33-2.19-28.74-5.13c-16.13-5.05-26.46-17.66-31.07-37.23
			c-2.45-10.41-6.45-20.3-9.79-30.54c12.37-8.28,34.61-6.42,46.24,4.34C65.3,108.69,78.44,142.64,73.84,164.98z"/>
		<path d="M0,208.1c4.98-1.3,8.58-3.75,10.89-2.58c10.32,5.22,21.4,9.73,30.1,17.74c15.87,14.6,27.48,10.07,44.95-3.59
			c0.78-0.61,1.94-0.52,3.16-0.81c-7.41,17.76-31.18,26.14-45.48,12.73c-8.22-7.71-17.2-14.49-26.44-20.35
			C13.06,208.63,7.48,209.32,0,208.1z"/>
		<path class="st2" d="M198.84,279.41c-7.04,41.64-14.08,83.27-21.13,124.93c-0.01,0.02,0.27-0.37,0.26-0.36
			c-3.92,0.81-7.82,2.21-11.74,2.3c-34.25,0.74-68.51,1.23-102.77,1.85c-4.31,0.08-8.62,0.47-12.93,0.71c0,1.1,0,2.2,0.01,3.31
			c40.16,0,80.32,0,120.48,0c0.63,1.41,1.25,2.81,1.88,4.22c-1.93,1.87-3.85,5.35-5.79,5.37c-39.73,0.32-79.47,0.24-119.16,0.24
			c-8.59-38.98-16.74-77.56-25.77-115.84c-2.51-10.65-1.24-24.38-13.03-29.99c-1.05-0.5-1.33-7.24-0.06-9.64
			c1.39-2.63,4.96-4.96,7.65-5.08c24.25-1.04,48.51-1.93,72.78-2.14c36.07-0.31,72.15-0.03,108.23,0c1.8,0,3.59,0,5.1,0
			c5.64,9.49-0.35,14.65-4.3,20.49c-3.92-1.68-7.83-4.82-11.74-4.83c-50.5-0.16-101,0.09-151.5,0.36c-3.1,0.02-6.2,1.06-9.3,1.62
			c0.14,0.83,0.29,1.67,0.43,2.5C83.9,279.41,141.37,279.41,198.84,279.41z"/>
		<path d="M198.84,279.41c-57.47,0-114.93,0-172.4,0c-0.14-0.83-0.29-1.67-0.43-2.5c3.1-0.56,6.19-1.6,9.3-1.62
			c50.5-0.27,101-0.53,151.5-0.36c3.91,0.01,7.82,3.15,11.74,4.83C198.56,279.74,198.84,279.41,198.84,279.41z"/>
	</g>
	<path class="st3" d="M37.78,200.45"/>
</g>
<g>
	<path class="st2" d="M372.36,22c0.62,1.11,0.52,2.21,0.04,3.35c-2.29,5.4-4.53,10.81-6.85,16.2c-0.43,1-0.23,1.25,0.79,1.42
		c5.62,0.98,11.25,1.92,16.61,3.95c0.76,0.29,1.49,0.59,2.01,1.25c1,1.26,1.11,2.88,0.27,4.14c-0.85,1.27-2.57,1.97-4.03,1.42
		c-5.71-2.18-11.72-3.02-17.67-4.19c-0.79-0.16-1.09,0.02-1.37,0.77c-2.4,6.65-4.57,13.37-6.19,20.26c-0.24,1.01-0.63,1.9-1.5,2.52
		c-1.2,0.84-2.76,0.87-3.96,0.06c-1.26-0.84-1.82-2.17-1.45-3.78c0.85-3.76,1.86-7.48,3.04-11.15c1.02-3.17,2.09-6.33,3.21-9.46
		c0.27-0.77,0.26-1.06-0.61-1.32c-4.14-1.21-8.03-3.02-11.9-4.87c-1.92-0.92-2.67-2.93-1.83-4.72c0.84-1.8,2.85-2.51,4.8-1.61
		c3.69,1.68,7.36,3.39,11.23,4.63c0.94,0.3,1.27,0.1,1.64-0.8c2.41-5.87,4.89-11.71,7.35-17.55c0.6-1.42,1.64-2.28,3.21-2.32
		C370.61,20.14,371.68,20.76,372.36,22z"/>
</g>
<g>
	<path class="st2" d="M400.9,371.37c-0.6,1.12-1.59,1.62-2.81,1.82c-5.78,0.95-11.56,1.96-17.35,2.87
		c-1.07,0.17-1.18,0.47-0.78,1.43c2.18,5.27,4.39,10.53,5.55,16.15c0.16,0.79,0.3,1.58,0.02,2.37c-0.53,1.52-1.84,2.48-3.36,2.44
		c-1.53-0.04-3.04-1.12-3.35-2.65c-1.2-5.99-3.71-11.52-5.91-17.17c-0.29-0.75-0.6-0.92-1.39-0.74c-6.91,1.52-13.74,3.28-20.43,5.6
		c-0.98,0.34-1.95,0.49-2.93,0.08c-1.36-0.56-2.21-1.87-2.17-3.31c0.03-1.52,0.86-2.7,2.42-3.25c3.63-1.29,7.31-2.43,11.05-3.39
		c3.23-0.83,6.46-1.62,9.71-2.35c0.79-0.18,1.04-0.35,0.79-1.22c-1.19-4.14-1.74-8.4-2.25-12.67c-0.25-2.12,1.05-3.82,3.01-4.07
		c1.97-0.25,3.64,1.07,3.93,3.19c0.55,4.01,1.07,8.03,2.1,11.97c0.25,0.95,0.59,1.13,1.56,0.96c6.25-1.1,12.51-2.13,18.76-3.18
		c1.52-0.26,2.8,0.17,3.68,1.47C401.53,368.89,401.58,370.13,400.9,371.37z"/>
</g>
<path class="st1" d="M372.4,220.06c-0.01-1.36,0.59-2.38,1.76-3.05c1.29-0.74,2.56-0.62,3.75,0.21c1.64,1.14,3.12,2.47,4.57,3.84
	c1.7,1.62,3.37,3.27,4.85,5.09c0.68,0.84,1,0.85,1.6-0.11c4.9-7.83,10.69-14.95,17.46-21.27c2.95-2.75,6.05-5.31,9.4-7.56
	c1.47-0.99,3.22-0.83,4.41,0.28c1.19,1.11,1.46,2.81,0.68,4.24c-0.28,0.52-0.68,0.91-1.16,1.25c-11.71,8.23-20.52,19-27.58,31.3
	c-1.86,3.24-4.51,3.44-6.77,0.5c-3.41-4.43-7.15-8.54-11.61-11.97C372.78,222.06,372.4,221.21,372.4,220.06z"/>
<g>
	<path class="st4" d="M357.06,110.95l-53.34-95.47c0,0-5.97,0.18-7.36,4.15c-0.38,0.99-0.17,1.46,0.48,2.62
		c-0.95,1.81-0.7,1.78-0.11,2.84c0.59,1.06,2.13,3.81,2.13,3.81s0.07,0.68,1.58,0.83c0.7,0.06,0.89,0.31,1.32,1.08
		c0.43,0.77,47.18,84.44,47.18,84.44s1.14,2.52,5.36,0.16C358.5,113.06,357.06,110.95,357.06,110.95z"/>
	<path class="st4" d="M312.76,37.08c0,0-0.88-0.26-1.8,0.25s-1,1.32-1,1.32l3.5,6.27c0,0,0.46,0.58,1.74-0.17
		c1.28-0.76,1.11-1.3,1.11-1.3L312.76,37.08z"/>
</g>
<line class="st5" x1="290.25" y1="33.27" x2="147.42" y2="111.47"/>
<g>
	<path class="st4" d="M362.32,278.21V168.85c0,0-5.3-2.75-8.45,0.03c-0.82,0.68-0.86,1.19-0.86,2.52c-1.71,1.12-1.48,1.21-1.48,2.43
		s0,4.36,0,4.36s-0.27,0.63,0.97,1.49c0.58,0.4,0.62,0.7,0.62,1.59c0,0.89,0,96.73,0,96.73s-0.23,2.75,4.6,2.75
		C362.56,280.75,362.32,278.21,362.32,278.21z"/>
	<path class="st4" d="M359.69,192.11c0,0-0.64-0.66-1.69-0.66s-1.52,0.66-1.52,0.66v7.18c0,0,0.12,0.74,1.61,0.7
		c1.49-0.04,1.61-0.6,1.61-0.6V192.11z"/>
</g>
<line class="st5" x1="341.9" y1="178.01" x2="214.43" y2="176.4"/>
<g>
	<path class="st4" d="M313.37,413.68l52.16-96.12c0,0-3.34-4.95-7.44-4.01c-1.04,0.2-1.32,0.64-1.96,1.81
		c-2.04,0.17-1.88,0.36-2.46,1.43c-0.58,1.07-2.08,3.84-2.08,3.84s-0.54,0.42,0.14,1.78c0.32,0.63,0.21,0.91-0.21,1.69
		c-0.42,0.78-46.13,85.02-46.13,85.02s-1.52,2.31,2.73,4.61C312.36,416.02,313.37,413.68,313.37,413.68z"/>
	<path class="st4" d="M352.12,336.75c0,0-0.25-0.89-1.17-1.39c-0.92-0.5-1.65-0.14-1.65-0.14l-3.42,6.31c0,0-0.25,0.7,1.08,1.38
		c1.33,0.68,1.7,0.24,1.7,0.24L352.12,336.75z"/>
</g>
<line class="st5" x1="343.85" y1="314.68" x2="157.66" y2="213.36"/>
</svg>
