<?xml version="1.0" encoding="utf-8"?>
<!-- Generator: Adobe Illustrator 24.2.0, SVG Export Plug-In . SVG Version: 6.00 Build 0)  -->
<svg version="1.1" xmlns="http://www.w3.org/2000/svg" xmlns:xlink="http://www.w3.org/1999/xlink" x="0px" y="0px"
	 viewBox="0 0 107.8 193.1" style="enable-background:new 0 0 107.8 193.1;" xml:space="preserve">
<style type="text/css">
	.st0{fill:#0C0C0C;}
	.st1{fill:#FFFFFE;}
	.st2{fill:#946137;}
	.st3{fill:#52885B;}
	.st4{fill:#020203;}
	.st5{fill:#9F5244;}
	.st6{fill:#FFFFFE;stroke:#0B0C0C;stroke-width:0.75;stroke-miterlimit:10;}
	.st7{fill:none;stroke:#FBBD3A;stroke-width:0.75;stroke-miterlimit:10;}
	.st8{fill:#FFFFFE;stroke:#0B0C0C;stroke-width:0.25;stroke-miterlimit:10;}
	.st9{fill:#0B0C0C;}
</style>
<g id="Layer_2">
	<g>
		<path class="st0" d="M13.3,126.6c0-18.1,0-36.1,0-54.2c0-0.7,0.2-1.4-0.7-1.7c-0.2-0.1-0.3-0.7-0.3-1.1c0-3.9,0-7.8,0-11.6
			c0-0.4,0.3-0.8,0.5-1.2c0.2-0.3,0.5-0.7,0.5-1c0.1-0.7,0.1-1.4,0-2c0-0.3-0.3-0.6-0.5-0.9c-0.2-0.4-0.5-0.7-0.5-1.1c0-4,0-8,0-12
			c0-0.3,0.1-0.8,0.3-0.9c1-0.3,0.8-1.1,0.8-1.8c0-1.1,0-2.2,0-3.4c0-0.6,0.2-1.3-0.7-1.6c-0.2-0.1-0.4-0.7-0.4-1c0-1.8,0-3.7,0-5.5
			c0-0.4,0.1-1,0.4-1.1c1-0.3,0.7-1,0.7-1.6c0-3.3,0-6.6,0-10c0-7.4,5.6-12.9,13-12.9c22.4,0,44.8,0,67.1,0
			c7.5,0,13.2,5.7,13.3,13.2c0,9.6,0,19.2,0,28.8c0,0.7-0.2,1.4,0.8,1.7c0.2,0.1,0.3,0.6,0.3,0.9c0,6.8,0,13.5,0,20.3
			c0,0.3-0.1,0.8-0.2,0.9c-1.1,0.4-0.8,1.3-0.8,2.1c0,37.4,0,74.7,0,112.1c0,6.2-3.6,11.2-9.3,12.7c-1.2,0.3-2.5,0.4-3.8,0.4
			c-22.4,0-44.8,0-67.1,0c-7.7,0-13.2-5.5-13.2-13.2C13.3,162.1,13.3,144.4,13.3,126.6z M13.9,96.5c0,27.8,0,55.6,0,83.4
			c0,7.3,5.3,12.6,12.5,12.6c22.4,0,44.8,0,67.3,0c7.1,0,12.4-5.3,12.4-12.4c0-55.6,0-111.2,0-166.8c0-7.2-5.5-12.7-12.7-12.7
			c-22.4,0-44.8,0-67.1,0c-7.2,0-12.4,5.3-12.4,12.4C13.9,40.9,13.9,68.7,13.9,96.5z M107,44.2c-0.1,0-0.1,0-0.2,0
			c0,7.1,0,14.1,0,21.2c0.1,0,0.1,0,0.2,0C107,58.3,107,51.2,107,44.2z M12.9,70.2c0.1,0,0.1,0,0.2,0c0-4.3,0-8.5,0-12.8
			c-0.1,0-0.1,0-0.2,0C12.9,61.7,12.9,65.9,12.9,70.2z M13.2,39.4c-0.1,0-0.2,0-0.2,0c0,4.3,0,8.5,0,12.8c0.1,0,0.2,0,0.2,0
			C13.2,47.9,13.2,43.7,13.2,39.4z M12.9,31.6c0.1,0,0.2,0,0.2,0c0-2.2,0-4.4,0-6.6c-0.1,0-0.2,0-0.2,0
			C12.9,27.2,12.9,29.4,12.9,31.6z"/>
		<path class="st1" d="M13.9,96.5c0-27.8,0-55.6,0-83.4c0-7.2,5.2-12.4,12.4-12.4c22.4,0,44.8,0,67.1,0c7.2,0,12.7,5.5,12.7,12.7
			c0,55.6,0,111.2,0,166.8c0,7.1-5.3,12.4-12.4,12.4c-22.4,0-44.8,0-67.3,0c-7.3,0-12.5-5.3-12.5-12.6
			C13.9,152.1,13.9,124.3,13.9,96.5z M14.4,96.5c0,27.8,0,55.5,0,83.3c0,7,5,12.1,11.9,12.1c22.5,0,45,0,67.5,0
			c6.9,0,11.8-5.1,11.8-11.9c0-55.5,0-111,0-166.5c0-7.1-5.2-12.3-12.3-12.3c-22.3,0-44.5,0-66.8,0c-7.1,0-12.1,5-12.1,12.1
			C14.4,41,14.4,68.8,14.4,96.5z"/>
		<path class="st1" d="M107,44.2c0,7.1,0,14.1,0,21.2c-0.1,0-0.1,0-0.2,0c0-7.1,0-14.1,0-21.2C106.9,44.2,107,44.2,107,44.2z"/>
		<path class="st1" d="M12.9,70.2c0-4.3,0-8.5,0-12.8c0.1,0,0.1,0,0.2,0c0,4.3,0,8.5,0,12.8C13.1,70.2,13,70.2,12.9,70.2z"/>
		<path class="st1" d="M13.2,39.4c0,4.3,0,8.5,0,12.8c-0.1,0-0.2,0-0.2,0c0-4.3,0-8.5,0-12.8C13,39.4,13.1,39.4,13.2,39.4z"/>
		<path class="st1" d="M12.9,31.6c0-2.2,0-4.4,0-6.6c0.1,0,0.2,0,0.2,0c0,2.2,0,4.4,0,6.6C13.1,31.6,13,31.6,12.9,31.6z"/>
		<path d="M14.4,96.5c0-27.7,0-55.5,0-83.2c0-7.1,5-12.1,12.1-12.1c22.3,0,44.5,0,66.8,0c7.1,0,12.3,5.2,12.3,12.3
			c0,55.5,0,111,0,166.5c0,6.9-5,11.9-11.8,11.9c-22.5,0-45,0-67.5,0c-6.9,0-11.9-5.2-11.9-12.1C14.4,152,14.4,124.3,14.4,96.5z
			 M15,96.5c0,27.8,0,55.5,0,83.3c0,6.6,4.8,11.5,11.4,11.5c22.5,0,44.9,0,67.4,0c6.5,0,11.3-4.8,11.3-11.4c0-55.5,0-111,0-166.5
			c0-0.9-0.1-1.9-0.3-2.8c-1.3-5.4-5.8-8.8-11.6-8.9c-22.1,0-44.2,0-66.3,0C19.7,1.7,15,6.5,15,13.6C15,41.2,15,68.9,15,96.5z"/>
		<path class="st1" d="M15,96.5c0-27.7,0-55.3,0-83c0-7.1,4.7-11.9,11.9-11.9c22.1,0,44.2,0,66.3,0c5.8,0,10.3,3.5,11.6,8.9
			c0.2,0.9,0.3,1.9,0.3,2.8c0,55.5,0,111,0,166.5c0,6.5-4.8,11.4-11.3,11.4c-22.5,0-44.9,0-67.4,0c-6.6,0-11.4-4.9-11.4-11.5
			C15,152.1,15,124.3,15,96.5z M103.1,96.7c0-27.5,0-55.1,0-82.6c0-0.6,0-1.2,0-1.8c-0.3-5-4.2-8.7-9.2-8.8c-2.7,0-5.4,0-8.2,0
			c-1.5,0-1.9,0.4-2,2c0,2.2-1.2,3.9-3.3,4.4c-0.9,0.2-1.9,0.3-2.8,0.3c-11.7,0-23.5,0-35.2,0c-0.6,0-1.1,0-1.7-0.1
			c-2.8-0.3-4.4-2-4.4-4.9c0-1.3-0.5-1.8-1.8-1.8c-2.7,0-5.4,0-8.2,0c-5.6,0.1-9.4,4-9.4,9.6c0,55.5,0,111.1,0,166.6
			c0,5.8,3.8,9.7,9.6,9.7c22.3,0,44.5,0,66.8,0c5.2,0,9.8-3.7,9.8-9.9C103,152.1,103.1,124.4,103.1,96.7z M60.1,7.1
			c1.8,0,3.5,0,5.3,0c0.8,0,1.5-0.2,1.5-1.1c0-0.9-0.7-1.1-1.5-1.1c-3.5,0-7.1,0-10.6,0c-0.8,0-1.5,0.2-1.5,1.1
			c0,0.9,0.7,1.2,1.5,1.2C56.5,7.1,58.3,7.1,60.1,7.1z M72.3,6.1c0-0.9-0.8-1.8-1.7-1.8c-1,0-1.9,0.7-1.8,1.8c0,1,0.8,1.7,1.8,1.8
			C71.4,7.8,72.2,7,72.3,6.1z"/>
		<path class="st0" d="M103.1,24.5c0,23.9,0,47.8,0,71.7c0,27.6-0.1,55.3,0.1,82.9c0,6.1-4.6,9.9-9.8,9.9c-22.3-0.1-44.5,0-66.8,0
			c-5.8,0-9.6-3.9-9.6-9.7c0-51.5,0-103,0-154.5 M17.5,24.6c0.1,23.2,0,46.5,0,69.7c0,27.2,0,54.4,0,81.6c0,4.9,3.7,8.6,8.6,8.6
			c22.6,0,45.2,0,67.7,0c4.9,0,8.6-3.7,8.6-8.5c0-54.3,0-108.7,0-163c0-5.2-3.7-8.8-9-8.8c-2.5,0-5,0-7.4,0c-1.5,0-1.7,0.2-1.7,1.6
			c0,2.1-1,3.6-3,4.4c-1.1,0.4-2.4,0.6-3.6,0.6c-11.8,0-23.7,0-35.5,0c-0.8,0-1.5-0.1-2.3-0.2c-2.7-0.5-4.4-2.4-4.3-5.1
			c0-1-0.4-1.4-1.4-1.4c-2.4,0-4.9,0.1-7.3,0c-5.1-0.1-9.5,3.2-9.4,9.2C17.5,17.1,17.5,20.9,17.5,24.6"/>
		<path d="M60.1,7.1c-1.8,0-3.6,0-5.4,0c-0.8,0-1.5-0.3-1.5-1.2c0-0.9,0.7-1.1,1.5-1.1c3.5,0,7.1,0,10.6,0c0.8,0,1.5,0.2,1.5,1.1
			c0,0.9-0.7,1.1-1.5,1.1C63.6,7.1,61.9,7.1,60.1,7.1z M60,6.5c1.7,0,3.4,0,5,0c0.4,0,0.8-0.3,1.3-0.5c-0.4-0.2-0.9-0.4-1.3-0.5
			c-3.2,0-6.5,0-9.7,0c-0.5,0-0.9,0.3-1.4,0.5c0.4,0.2,0.9,0.4,1.3,0.4C56.8,6.5,58.4,6.5,60,6.5z"/>
		<path d="M72.3,6.1c0,0.9-0.9,1.7-1.8,1.7c-1,0-1.7-0.8-1.8-1.8c0-1,0.8-1.8,1.8-1.8C71.5,4.3,72.3,5.1,72.3,6.1z M70.4,4.3
			c-0.5,0.8-1,1.2-1,1.7c-0.1,0.7,0.5,1.3,1.2,1.1c0.4-0.1,0.9-0.8,1-1.2C71.5,5.5,71,5.1,70.4,4.3z"/>
		<path class="st1" d="M17.6,96.1c0-27.5,0.1-55.1-0.1-82.6c0-6.1,4.4-9.5,9.4-9.3c2.4,0.1,4.9,0,7.3,0c1,0,1.4,0.3,1.4,1.4
			c0,2.7,1.6,4.7,4.3,5.2c0.7,0.1,1.5,0.2,2.3,0.2c11.8,0,23.7,0,35.5,0c1.2,0,2.5-0.2,3.6-0.7c2-0.8,3-2.3,3-4.5
			c0-1.5,0.2-1.6,1.7-1.6c2.5,0,5,0,7.4,0c5.3,0,9,3.7,9,9c0,55.4,0,110.9,0,166.3c0,4.9-3.7,8.6-8.6,8.6c-22.6,0-45.2,0-67.7,0
			c-4.9,0-8.6-3.8-8.6-8.8C17.5,151.6,17.6,123.8,17.6,96.1z"/>
		<path class="st1" d="M60,6.5c-1.6,0-3.2,0-4.8,0c-0.4,0-0.9-0.3-1.3-0.4c0.5-0.2,0.9-0.5,1.4-0.5c3.2,0,6.5,0,9.7,0
			c0.4,0,0.9,0.3,1.3,0.5c-0.4,0.2-0.8,0.5-1.3,0.5C63.3,6.5,61.6,6.5,60,6.5z"/>
		<path class="st1" d="M70.4,4.3c0.6,0.8,1.2,1.2,1.1,1.6c0,0.4-0.5,1.1-1,1.2c-0.7,0.2-1.3-0.3-1.2-1.1C69.4,5.6,69.9,5.1,70.4,4.3
			z"/>
	</g>
</g>
<g id="Layer_3">
	<path class="st0" d="M16.9,25.1c0-4,0-8,0-12c0-5.6,3.8-9.5,9.4-9.6c2.7,0,5.4,0,8.2,0c1.3,0,1.8,0.6,1.8,1.8
		c0,2.8,1.6,4.5,4.4,4.9c0.6,0.1,1.1,0.1,1.7,0.1c11.7,0,23.5,0,35.2,0c0.9,0,1.9-0.1,2.8-0.3c2.1-0.6,3.3-2.3,3.3-4.4
		c0-1.6,0.4-2,2-2c2.7,0,5.4,0,8.2,0c5,0.1,8.9,3.8,9.2,8.8c0,0.6,0,1.2,0,1.8c0,3.6,0,7.2,0,10.8"/>
	<g>
		<path class="st1" d="M27.2,17.1c-0.1,0-0.1,0-0.1,0c-0.4,0-0.8,0-1.2,0c-0.1,0-0.2,0-0.3-0.1c-0.1-0.1,0-0.2,0.1-0.3
			c0.9-1.2,1.8-2.4,2.7-3.6c0,0,0.1-0.1,0.1-0.1c0.1-0.1,0.2,0,0.3,0c0.1,0.1,0.1,0.2,0.1,0.3c-0.1,0.6-0.3,1.2-0.4,1.9
			c0,0.2-0.1,0.4-0.1,0.6c0.3,0,0.6,0,0.9,0c0.1,0,0.3,0,0.4,0c0.1,0,0.2,0,0.3,0.1c0.1,0.1,0,0.2-0.1,0.3c-0.5,0.7-1,1.3-1.5,2
			c-0.4,0.5-0.8,1.1-1.2,1.6c-0.1,0.1-0.1,0.2-0.3,0.1c-0.2,0-0.3-0.2-0.2-0.3c0.1-0.5,0.2-1,0.3-1.5C27.1,17.8,27.1,17.5,27.2,17.1
			z"/>
	</g>
	<g>
		<path class="st1" d="M88.6,14.8c0-0.1,0-0.2,0-0.3c0.2,0,0.4,0,0.6,0c0,0.1,0,0.2,0,0.3c0.1,0,0.3,0,0.4-0.1
			c0.2-0.2,0.3-0.4,0.5-0.5c0.1-0.1,0.3-0.2,0.5-0.2c0.5,0,0.9,0,1.4,0c0.2,0,0.4,0.1,0.5,0.2c0.2,0.2,0.3,0.4,0.5,0.6
			c0,0,0.1,0.1,0.2,0.1c0.3,0,0.6,0,0.9,0c0.4,0,0.6,0.2,0.6,0.6c0,1,0,2.1,0,3.1c0,0.4-0.2,0.7-0.6,0.7c-1.9,0-3.8,0-5.7,0
			c-0.5,0-0.7-0.3-0.7-0.7c0-1,0-2,0-3c0-0.4,0.2-0.7,0.7-0.7C88.4,14.8,88.5,14.8,88.6,14.8z M92.8,16.6c-0.1-0.8-0.5-1.3-1.3-1.4
			c-0.5-0.1-1,0.1-1.3,0.4c0.1,0.1,0.1,0.1,0.2,0.2c1-0.6,2.1-0.2,2.2,0.8c-0.2,0-0.3,0-0.5,0c0.2,0.3,0.5,0.6,0.7,0.9
			c0.2-0.3,0.5-0.6,0.7-0.9C93.2,16.6,93,16.6,92.8,16.6z M90.5,16.9c-0.2-0.3-0.5-0.6-0.7-0.9c-0.2,0.3-0.4,0.6-0.7,0.9
			c0.2,0,0.4,0,0.5,0c0.1,0.7,0.5,1.2,1.2,1.4c0.6,0.2,1.1,0,1.5-0.4c-0.1-0.1-0.1-0.1-0.2-0.2c-0.5,0.4-1,0.5-1.5,0.2
			c-0.4-0.2-0.6-0.5-0.7-1C90.1,16.9,90.3,16.9,90.5,16.9z"/>
	</g>
	<path class="st0" d="M0,165.9c0-0.3,0-0.5,0-0.8 M103.1,159.2c0,6.4,0,12.9,0.1,19.3c0,6.1-4.6,9.9-9.8,9.9
		c-22.3-0.1-44.5,0-66.8,0c-5.8,0-9.6-3.9-9.6-9.7c0-6.5,0-12.9,0-19.4"/>
</g>
<g id="Layer_1">
	<g>
		<path class="st2" d="M61.8,95.2c0-0.2-2.5-5.4-3.3-6.5c-0.8-1-2-4.9-1.7-7.7c0.3-2.8,0.6-2.1,0.6-2.1s0,0.2,0.7,0.1
			c0,0,0.3-0.3,0.3,1c0,1.3,0.4,7,2.9,9c1.7,2.4,3.6,6.4,3.6,6.4s-2.7,0.4-2.9,0C61.8,95.2,61.8,95.2,61.8,95.2z"/>
		<path class="st3" d="M45.2,88.5c-0.1,0,1-1.3,1.8-1.7c0.8-0.4,2.9-1.8,4.9-1.1s5.2,4,5.5,4.2s-0.3,0.7-1.1,1.2
			c-0.7,0.5-4,2.3-5.2,1.3C49.8,91.4,45.8,88.6,45.2,88.5z"/>
		<g>
			<path class="st3" d="M59.9,78.6c0.2-0.1,4.2-1.7,5.8-6.3s1.6-10.6-0.7-11.8c0,0-1.4,3.3-2.7,4.5c-1.2,1.2-3.6,3.1-4.8,5
				c-1.2,2-0.4,4.5-0.4,5.7c0.1,1.2,0.6,2,0.4,2.6C57.4,79,57,79.5,59.9,78.6z"/>
			<path class="st3" d="M46.1,72.6c0,0,2.4-1.1,4.9,0.5c2.5,1.6,3.8,6.2,4,8.2c0.1,1.1,0.8,2.2-2.3,1.1c-3.1-1.1-4.3-1.8-5.1-3.3
				c-0.8-1.5-2.4-5.6-2.6-5.9c-0.1-0.3,0.1-0.5,0.1-0.5L46.1,72.6z"/>
			<path class="st4" d="M61.6,88.1c0.3,0.6,0.5,1.3,0.8,1.9c0.8,1.5,1.5,3.1,2.4,4.6c0.3,0.4,0.9,0.8,1.4,0.8c3.2,0.1,6.3,0,9.6,0
				c0.2,1.2,0.3,2.3-0.7,3.6c-0.9,1.1-0.7,3.1-1.1,4.7c-0.7,3.5-1.4,6.9-2.1,10.4c-0.1,0.7-0.5,1.3-0.8,2c1.1-5.8,2.2-11.6,3.3-17.5
				l0,0c0.6-0.8,1.5-1.5,0.7-2.9c-0.2,0-0.5,0-0.8,0c-5.6,0-11.1,0-16.7,0c-3.7,0-7.5,0.2-11.2,0.3c-0.4,0-1,0.3-1.2,0.7
				c-0.2,0.3-0.2,1.3,0,1.3c1.8,0.8,1.6,2.7,2,4.2c1.4,5.3,2.7,10.7,4,16.2c6.1,0,12.3,0,18.4,0c0.3,0,0.6-0.5,0.9-0.8
				c-0.1-0.2-0.2-0.4-0.3-0.6c-6.2,0-12.4,0-18.6,0c0-0.2,0-0.3,0-0.5c0.7,0,1.3-0.1,2-0.1c5.3-0.1,10.6-0.2,15.9-0.3
				c0.6,0,1.2-0.2,1.8-0.3c-0.1,1-0.2,2-0.2,3.3c-6.8,0-13.6,0-20.3,0c-1.6-6.3-3.1-12.4-4.7-18.5c-0.2-0.8-0.2-1.5-1.2-1.9
				c-0.4-0.1-0.2-1.8-0.3-2.9c5.7-1.8,11.3-0.8,17.1-0.7c-0.8-2.2-1-4.4-3.7-4.9c-0.9-0.2-1.7-1.1-2.4-1.9c-3-3.3-5.2-3.7-9-1.2
				c-0.2,0.1-0.7,0.9-1,1.1c2.3-3.1,6.8-4.1,9.4-1.4c0.8,0.8,1.6,1.7,2.5,2.5c0.3,0.3,0.7,0.3,1,0.5c-0.8-2.8-1.7-5.6-2.5-8.4
				c0,0,0.5,0,0.5-0.1c0.3-1.7,1.5-3.1,0.8-5c-1.4-4.3-0.7-6.6,2.6-9.3c2.3-1.9,4.3-4.1,4.7-7.4c2.5,1.1,3.7,6.1,2.6,10.4
				c-1.6,6-6.2,9.6-9.3,9c6.2-0.8,11-13.6,7.4-18.4c-0.8,3.5-3.1,5.5-5.5,7.5c-2.5,2.1-2.7,4.9-1.9,8c0.2,0.9,0.2,2,0,2.9
				c-1,3.7-0.4,7.1,1.6,10.3c1.2,1.8,2.2,3.8,3.4,6c0.2,0,0.8,0,2,0c-0.9-1.7-1.5-3.2-2.4-4.5c-1.8-2.5-3.5-5-3.9-8.2
				c-0.1-1.1,0-2.5,0-3.6c0.6,2.6,1.1,5.6,1.7,8.3c1-0.6,1.6-1.1,2.3-1.5c-0.4,0.5-0.9,0.9-1.2,1.4C61,87.4,61.4,87.8,61.6,88.1z"/>
			<path class="st3" d="M61.6,88.1c-0.2-0.3-0.6-0.7-0.5-0.8c0.4-0.5,0.8-1,1.2-1.4c0.7-0.2,1.3-0.4,2-0.6c0.4-0.6,0.8-1.3,1.3-1.9
				c1-1,2-2.4,3.2-2.7c2.1-0.7,4.4-0.7,6.6-1c0.1,0.1,0.3,0.3,0.4,0.4c-0.8,0.6-1.6,1.1-2.3,1.7c0.1,0.1,0.2,0.2,0.3,0.3
				c1.4-1.4,2.8-2.7,4.1-4.1c0.1,0.1,0.2,0.3,0.4,0.4c-0.5,1.1-1,2.2-1.5,3.2c-2.1,3.8-5.1,5.8-9.4,5c-1-0.2-2.2-0.2-3.2-0.1
				c-0.6,0.1-1.1,0.6-1.7,0.9C62.2,87.7,61.9,87.9,61.6,88.1z"/>
			<path class="st4" d="M62.6,87.5c0.6-0.3,1.1-0.8,1.7-0.9c1.1-0.1,2.2-0.2,3.2,0.1c4.3,0.8,7.2-1.2,9.4-5c0.6-1,1-2.2,1.5-3.2
				c-0.1-0.1-0.2-0.3-0.4-0.4c-1.4,1.4-2.8,2.7-4.1,4.1c-0.1-0.1-0.2-0.2-0.3-0.3c0.8-0.6,1.6-1.1,2.3-1.7c-0.1-0.1-0.3-0.3-0.4-0.4
				c-2.2,0.3-4.5,0.3-6.6,1c-1.2,0.4-2.2,1.7-3.2,2.7c-0.5,0.5-0.9,1.2-1.3,1.9c1.3-3.9,3.2-5.3,6.8-5.7c2.2-0.3,4.3-1.1,6.4-1.7
				c0.6-0.2,1.1-0.4,2-0.8c-1.4,3.8-2.8,7.1-5.9,9.2c-2.2,1.5-4.7,1.1-7.1,0.9C65.2,87.2,63.9,87.4,62.6,87.5z"/>
			<path class="st4" d="M55,82.8c-0.4-3-1.3-7.8-4.1-9.4c-1.8-1-3.8-1-5.9-0.5c1.3,2.6,2,5.5,3.8,7.2c1.7,1.6,4.4,1.9,6.7,2.8
				c-1.5-0.2-3-0.3-4.4-0.7c-2.5-0.7-4.1-2.5-4.8-5.2c-0.4-1.5-1-2.8-1.5-4.3c1.9-1.2,5.3-0.9,7.1,0.6C53.7,74.9,55.7,79.6,55,82.8z
				"/>
			<path class="st4" d="M43.6,88.8c0.8-0.2,1.3-0.5,1.7-0.4c1.6,0.7,3.3,1.4,4.6,2.5c2.4,2,4.2,1.4,6.9-0.5c0.1-0.1,0.3-0.1,0.5-0.1
				c-1.1,2.5-4.8,3.7-7,1.8c-1.3-1.1-2.7-2-4.1-2.8C45.6,88.9,44.8,89,43.6,88.8z"/>
			<path class="st5" d="M74.3,98.7c-1.1,5.8-2.2,11.6-3.3,17.5c0,0,0-0.1,0-0.1c-0.6,0.1-1.2,0.3-1.8,0.3
				c-5.3,0.1-10.6,0.2-15.9,0.3c-0.7,0-1.3,0.1-2,0.1c0,0.2,0,0.3,0,0.5c6.2,0,12.4,0,18.6,0c0.1,0.2,0.2,0.4,0.3,0.6
				c-0.3,0.3-0.6,0.7-0.9,0.8c-6.1,0-12.3,0-18.4,0c-1.3-5.4-2.6-10.8-4-16.2c-0.4-1.5-0.2-3.4-2-4.2c-0.2-0.1-0.2-1,0-1.3
				c0.2-0.4,0.8-0.7,1.2-0.7c3.7-0.1,7.5-0.3,11.2-0.3c5.6,0,11.1,0,16.7,0c0.3,0,0.6,0,0.8,0C75.8,97.3,74.9,98,74.3,98.7
				c-0.6-0.2-1.3-0.6-1.9-0.6c-7.8,0-15.6,0-23.4,0.1c-0.5,0-1,0.1-1.4,0.2c0,0.1,0,0.2,0.1,0.3C56.6,98.7,65.4,98.7,74.3,98.7z"/>
			<path class="st4" d="M74.3,98.7c-8.9,0-17.7,0-26.6,0c0-0.1,0-0.2-0.1-0.3c0.5-0.1,1-0.2,1.4-0.2c7.8,0,15.6-0.1,23.4-0.1
				C73,98.1,73.7,98.6,74.3,98.7C74.3,98.8,74.3,98.7,74.3,98.7z"/>
		</g>
		<path class="st1" d="M49.5,87.7"/>
	</g>
	<circle class="st6" cx="60.7" cy="173.8" r="8.8"/>
	<g>
		<polyline class="st7" points="73.2,56.1 85.1,56.1 85.1,67.9 		"/>
		<polyline class="st7" points="35.7,68.1 35.7,56.1 47.5,56.1 		"/>
		<polyline class="st7" points="47.7,128.2 35.8,128.2 35.8,116.4 		"/>
		<polyline class="st7" points="85.2,116.2 85.2,128.2 73.4,128.2 		"/>
	</g>
	<circle class="st8" cx="60.7" cy="173.8" r="7.6"/>
	<g>
		<path class="st9" d="M60.7,177c-1.1,0-2.1,0-3.2,0c-0.2,0-0.4-0.1-0.6-0.2c-0.1-0.1-0.2-0.3-0.2-0.4c0-1.4,0-2.9,0-4.3
			c0-0.4,0.3-0.6,0.7-0.6c0.5,0,1,0,1.5,0c0.1,0,0.2,0,0.2-0.1c0.1-0.2,0.2-0.5,0.4-0.7c0-0.1,0.1-0.1,0.2-0.1c0.7,0,1.4,0,2.1,0
			c0.1,0,0.1,0,0.2,0.1c0.1,0.2,0.2,0.5,0.3,0.7c0,0.1,0.1,0.1,0.2,0.1c0.5,0,0.9,0,1.4,0c0.4,0,0.7,0.3,0.7,0.7c0,1.4,0,2.7,0,4.1
			c0,0.4-0.3,0.7-0.8,0.7C62.8,177,61.7,177,60.7,177z M60.7,172.2c-1.2,0-2.1,0.9-2.1,2.1c0,1.2,0.9,2.1,2.1,2.1
			c1.1,0,2.1-0.9,2.1-2.1C62.8,173.1,61.8,172.2,60.7,172.2z"/>
		<path class="st9" d="M60.7,175.6c-0.7,0-1.3-0.6-1.3-1.3c0-0.7,0.6-1.3,1.3-1.3c0.7,0,1.3,0.6,1.3,1.3
			C62,175,61.4,175.6,60.7,175.6z"/>
		<path class="st9" d="M60.7,175.6c-0.7,0-1.3-0.6-1.3-1.3c0-0.7,0.6-1.3,1.3-1.3c0.7,0,1.3,0.6,1.3,1.3
			C62,175,61.4,175.6,60.7,175.6z"/>
		<path class="st9" d="M60.7,175.6c-0.7,0-1.3-0.6-1.3-1.3c0-0.7,0.6-1.3,1.3-1.3c0.7,0,1.3,0.6,1.3,1.3
			C62,175,61.4,175.6,60.7,175.6z"/>
		<path class="st9" d="M60.7,175.6c-0.7,0-1.3-0.6-1.3-1.3c0-0.7,0.6-1.3,1.3-1.3c0.7,0,1.3,0.6,1.3,1.3
			C62,175,61.4,175.6,60.7,175.6z"/>
		<path class="st9" d="M60.7,175.6c-0.7,0-1.3-0.6-1.3-1.3c0-0.7,0.6-1.3,1.3-1.3c0.7,0,1.3,0.6,1.3,1.3
			C62,175,61.4,175.6,60.7,175.6z"/>
		<path class="st9" d="M60.7,175.6c-0.7,0-1.3-0.6-1.3-1.3c0-0.7,0.6-1.3,1.3-1.3c0.7,0,1.3,0.6,1.3,1.3
			C62,175,61.4,175.6,60.7,175.6z"/>
	</g>
	<g>
	</g>
	<g>
	</g>
	<g>
	</g>
	<g>
	</g>
	<g>
	</g>
	<g>
	</g>
</g>
</svg>
