<?xml version="1.0" encoding="utf-8"?>
<!-- Generator: Adobe Illustrator 24.2.0, SVG Export Plug-In . SVG Version: 6.00 Build 0)  -->
<svg version="1.1" xmlns="http://www.w3.org/2000/svg" xmlns:xlink="http://www.w3.org/1999/xlink" x="0px" y="0px"
	 viewBox="0 0 107.8 193.1" style="enable-background:new 0 0 107.8 193.1;" xml:space="preserve">
<style type="text/css">
	.st0{fill:#FFFFFE;}
	.st1{fill:#946137;}
	.st2{fill:#52885B;}
	.st3{fill:#020203;}
	.st4{fill:#9F5244;}
	.st5{fill:#FFFFFE;stroke:#000000;stroke-width:0.75;stroke-miterlimit:10;}
	.st6{fill:none;stroke:#FBBD3A;stroke-width:0.75;stroke-miterlimit:10;}
	.st7{fill:#FFFFFE;stroke:#000000;stroke-width:0.25;stroke-miterlimit:10;}
</style>
<g id="Layer_2">
	<g>
		<path d="M13.3,126.6c0-18.1,0-36.1,0-54.2c0-0.7,0.2-1.4-0.7-1.7c-0.2-0.1-0.3-0.7-0.3-1.1c0-3.9,0-7.8,0-11.6
			c0-0.4,0.3-0.8,0.5-1.2c0.2-0.3,0.5-0.7,0.5-1c0.1-0.7,0.1-1.4,0-2c0-0.3-0.3-0.6-0.5-0.9c-0.2-0.4-0.5-0.7-0.5-1.1c0-4,0-8,0-12
			c0-0.3,0.1-0.8,0.3-0.9c1-0.3,0.8-1.1,0.8-1.8c0-1.1,0-2.2,0-3.4c0-0.6,0.2-1.3-0.7-1.6c-0.2-0.1-0.4-0.7-0.4-1c0-1.8,0-3.7,0-5.5
			c0-0.4,0.1-1,0.4-1.1c1-0.3,0.7-1,0.7-1.6c0-3.3,0-6.6,0-10c0-7.4,5.6-12.9,13-12.9c22.4,0,44.8,0,67.1,0
			c7.5,0,13.2,5.7,13.3,13.2c0,9.6,0,19.2,0,28.8c0,0.7-0.2,1.4,0.8,1.7c0.2,0.1,0.3,0.6,0.3,0.9c0,6.8,0,13.5,0,20.3
			c0,0.3-0.1,0.8-0.2,0.9c-1.1,0.4-0.8,1.3-0.8,2.1c0,37.4,0,74.7,0,112.1c0,6.2-3.6,11.2-9.3,12.7c-1.2,0.3-2.5,0.4-3.8,0.4
			c-22.4,0-44.8,0-67.1,0c-7.7,0-13.2-5.5-13.2-13.2C13.3,162.1,13.3,144.4,13.3,126.6z M13.9,96.5c0,27.8,0,55.6,0,83.4
			c0,7.3,5.3,12.6,12.5,12.6c22.4,0,44.8,0,67.3,0c7.1,0,12.4-5.3,12.4-12.4c0-55.6,0-111.2,0-166.8c0-7.2-5.5-12.7-12.7-12.7
			c-22.4,0-44.8,0-67.1,0c-7.2,0-12.4,5.3-12.4,12.4C13.9,40.9,13.9,68.7,13.9,96.5z M107,44.2c-0.1,0-0.1,0-0.2,0
			c0,7.1,0,14.1,0,21.2c0.1,0,0.1,0,0.2,0C107,58.3,107,51.2,107,44.2z M12.9,70.2c0.1,0,0.1,0,0.2,0c0-4.3,0-8.5,0-12.8
			c-0.1,0-0.1,0-0.2,0C12.9,61.7,12.9,65.9,12.9,70.2z M13.2,39.4c-0.1,0-0.2,0-0.2,0c0,4.3,0,8.5,0,12.8c0.1,0,0.2,0,0.2,0
			C13.2,47.9,13.2,43.7,13.2,39.4z M12.9,31.6c0.1,0,0.2,0,0.2,0c0-2.2,0-4.4,0-6.6c-0.1,0-0.2,0-0.2,0
			C12.9,27.2,12.9,29.4,12.9,31.6z"/>
		<path class="st0" d="M13.9,96.5c0-27.8,0-55.6,0-83.4c0-7.2,5.2-12.4,12.4-12.4c22.4,0,44.8,0,67.1,0c7.2,0,12.7,5.5,12.7,12.7
			c0,55.6,0,111.2,0,166.8c0,7.1-5.3,12.4-12.4,12.4c-22.4,0-44.8,0-67.3,0c-7.3,0-12.5-5.3-12.5-12.6
			C13.9,152.1,13.9,124.3,13.9,96.5z M14.4,96.5c0,27.8,0,55.5,0,83.3c0,7,5,12.1,11.9,12.1c22.5,0,45,0,67.5,0
			c6.9,0,11.8-5.1,11.8-11.9c0-55.5,0-111,0-166.5c0-7.1-5.2-12.3-12.3-12.3c-22.3,0-44.5,0-66.8,0c-7.1,0-12.1,5-12.1,12.1
			C14.4,41,14.4,68.8,14.4,96.5z"/>
		<path class="st0" d="M107,44.2c0,7.1,0,14.1,0,21.2c-0.1,0-0.1,0-0.2,0c0-7.1,0-14.1,0-21.2C106.9,44.2,107,44.2,107,44.2z"/>
		<path class="st0" d="M12.9,70.2c0-4.3,0-8.5,0-12.8c0.1,0,0.1,0,0.2,0c0,4.3,0,8.5,0,12.8C13.1,70.2,13,70.2,12.9,70.2z"/>
		<path class="st0" d="M13.2,39.4c0,4.3,0,8.5,0,12.8c-0.1,0-0.2,0-0.2,0c0-4.3,0-8.5,0-12.8C13,39.4,13.1,39.4,13.2,39.4z"/>
		<path class="st0" d="M12.9,31.6c0-2.2,0-4.4,0-6.6c0.1,0,0.2,0,0.2,0c0,2.2,0,4.4,0,6.6C13.1,31.6,13,31.6,12.9,31.6z"/>
		<path d="M14.4,96.5c0-27.7,0-55.5,0-83.2c0-7.1,5-12.1,12.1-12.1c22.3,0,44.5,0,66.8,0c7.1,0,12.3,5.2,12.3,12.3
			c0,55.5,0,111,0,166.5c0,6.9-5,11.9-11.8,11.9c-22.5,0-45,0-67.5,0c-6.9,0-11.9-5.2-11.9-12.1C14.4,152,14.4,124.3,14.4,96.5z
			 M15,96.5c0,27.8,0,55.5,0,83.3c0,6.6,4.8,11.5,11.4,11.5c22.5,0,44.9,0,67.4,0c6.5,0,11.3-4.8,11.3-11.4c0-55.5,0-111,0-166.5
			c0-0.9-0.1-1.9-0.3-2.8c-1.3-5.4-5.8-8.8-11.6-8.9c-22.1,0-44.2,0-66.3,0C19.7,1.7,15,6.5,15,13.6C15,41.2,15,68.9,15,96.5z"/>
		<path class="st0" d="M15,96.5c0-27.7,0-55.3,0-83c0-7.1,4.7-11.9,11.9-11.9c22.1,0,44.2,0,66.3,0c5.8,0,10.3,3.5,11.6,8.9
			c0.2,0.9,0.3,1.9,0.3,2.8c0,55.5,0,111,0,166.5c0,6.5-4.8,11.4-11.3,11.4c-22.5,0-44.9,0-67.4,0c-6.6,0-11.4-4.9-11.4-11.5
			C15,152.1,15,124.3,15,96.5z M103.1,96.7c0-27.5,0-55.1,0-82.6c0-0.6,0-1.2,0-1.8c-0.3-5-4.2-8.7-9.2-8.8c-2.7,0-5.4,0-8.2,0
			c-1.5,0-1.9,0.4-2,2c0,2.2-1.2,3.9-3.3,4.4c-0.9,0.2-1.9,0.3-2.8,0.3c-11.7,0-23.5,0-35.2,0c-0.6,0-1.1,0-1.7-0.1
			c-2.8-0.3-4.4-2-4.4-4.9c0-1.3-0.5-1.8-1.8-1.8c-2.7,0-5.4,0-8.2,0c-5.6,0.1-9.4,4-9.4,9.6c0,55.5,0,111.1,0,166.6
			c0,5.8,3.8,9.7,9.6,9.7c22.3,0,44.5,0,66.8,0c5.2,0,9.8-3.7,9.8-9.9C103,152.1,103.1,124.4,103.1,96.7z M60.1,7.1
			c1.8,0,3.5,0,5.3,0c0.8,0,1.5-0.2,1.5-1.1c0-0.9-0.7-1.1-1.5-1.1c-3.5,0-7.1,0-10.6,0c-0.8,0-1.5,0.2-1.5,1.1
			c0,0.9,0.7,1.2,1.5,1.2C56.5,7.1,58.3,7.1,60.1,7.1z M72.3,6.1c0-0.9-0.8-1.8-1.7-1.8c-1,0-1.9,0.7-1.8,1.8c0,1,0.8,1.7,1.8,1.8
			C71.4,7.8,72.2,7,72.3,6.1z"/>
		<path d="M103.1,24.5c0,23.9,0,47.8,0,71.7c0,27.6-0.1,55.3,0.1,82.9c0,6.1-4.6,9.9-9.8,9.9c-22.3-0.1-44.5,0-66.8,0
			c-5.8,0-9.6-3.9-9.6-9.7c0-51.5,0-103,0-154.5 M17.5,24.6c0.1,23.2,0,46.5,0,69.7c0,27.2,0,54.4,0,81.6c0,4.9,3.7,8.6,8.6,8.6
			c22.6,0,45.2,0,67.7,0c4.9,0,8.6-3.7,8.6-8.5c0-54.3,0-108.7,0-163c0-5.2-3.7-8.8-9-8.8c-2.5,0-5,0-7.4,0c-1.5,0-1.7,0.2-1.7,1.6
			c0,2.1-1,3.6-3,4.4c-1.1,0.4-2.4,0.6-3.6,0.6c-11.8,0-23.7,0-35.5,0c-0.8,0-1.5-0.1-2.3-0.2c-2.7-0.5-4.4-2.4-4.3-5.1
			c0-1-0.4-1.4-1.4-1.4c-2.4,0-4.9,0.1-7.3,0c-5.1-0.1-9.5,3.2-9.4,9.2C17.5,17.1,17.5,20.9,17.5,24.6"/>
		<path d="M60.1,7.1c-1.8,0-3.6,0-5.4,0c-0.8,0-1.5-0.3-1.5-1.2c0-0.9,0.7-1.1,1.5-1.1c3.5,0,7.1,0,10.6,0c0.8,0,1.5,0.2,1.5,1.1
			c0,0.9-0.7,1.1-1.5,1.1C63.6,7.1,61.9,7.1,60.1,7.1z M60,6.5c1.7,0,3.4,0,5,0c0.4,0,0.8-0.3,1.3-0.5c-0.4-0.2-0.9-0.4-1.3-0.5
			c-3.2,0-6.5,0-9.7,0c-0.5,0-0.9,0.3-1.4,0.5c0.4,0.2,0.9,0.4,1.3,0.4C56.8,6.5,58.4,6.5,60,6.5z"/>
		<path d="M72.3,6.1c0,0.9-0.9,1.7-1.8,1.7c-1,0-1.7-0.8-1.8-1.8c0-1,0.8-1.8,1.8-1.8C71.5,4.3,72.3,5.1,72.3,6.1z M70.4,4.3
			c-0.5,0.8-1,1.2-1,1.7c-0.1,0.7,0.5,1.3,1.2,1.1c0.4-0.1,0.9-0.8,1-1.2C71.5,5.5,71,5.1,70.4,4.3z"/>
		<path class="st0" d="M17.6,96.1c0-27.5,0.1-55.1-0.1-82.6c0-6.1,4.4-9.5,9.4-9.3c2.4,0.1,4.9,0,7.3,0c1,0,1.4,0.3,1.4,1.4
			c0,2.7,1.6,4.7,4.3,5.2c0.7,0.1,1.5,0.2,2.3,0.2c11.8,0,23.7,0,35.5,0c1.2,0,2.5-0.2,3.6-0.7c2-0.8,3-2.3,3-4.5
			c0-1.5,0.2-1.6,1.7-1.6c2.5,0,5,0,7.4,0c5.3,0,9,3.7,9,9c0,55.4,0,110.9,0,166.3c0,4.9-3.7,8.6-8.6,8.6c-22.6,0-45.2,0-67.7,0
			c-4.9,0-8.6-3.8-8.6-8.8C17.5,151.6,17.6,123.8,17.6,96.1z"/>
		<path class="st0" d="M60,6.5c-1.6,0-3.2,0-4.8,0c-0.4,0-0.9-0.3-1.3-0.4c0.5-0.2,0.9-0.5,1.4-0.5c3.2,0,6.5,0,9.7,0
			c0.4,0,0.9,0.3,1.3,0.5c-0.4,0.2-0.8,0.5-1.3,0.5C63.3,6.5,61.6,6.5,60,6.5z"/>
		<path class="st0" d="M70.4,4.3c0.6,0.8,1.2,1.2,1.1,1.6c0,0.4-0.5,1.1-1,1.2c-0.7,0.2-1.3-0.3-1.2-1.1C69.4,5.6,69.9,5.1,70.4,4.3
			z"/>
	</g>
</g>
<g id="Layer_3">
	<path d="M16.9,25.1c0-4,0-8,0-12c0-5.6,3.8-9.5,9.4-9.6c2.7,0,5.4,0,8.2,0c1.3,0,1.8,0.6,1.8,1.8c0,2.8,1.6,4.5,4.4,4.9
		c0.6,0.1,1.1,0.1,1.7,0.1c11.7,0,23.5,0,35.2,0c0.9,0,1.9-0.1,2.8-0.3c2.1-0.6,3.3-2.3,3.3-4.4c0-1.6,0.4-2,2-2c2.7,0,5.4,0,8.2,0
		c5,0.1,8.9,3.8,9.2,8.8c0,0.6,0,1.2,0,1.8c0,3.6,0,7.2,0,10.8"/>
	<g>
		<path class="st0" d="M27.2,17.1c-0.1,0-0.1,0-0.1,0c-0.4,0-0.8,0-1.2,0c-0.1,0-0.2,0-0.3-0.1c-0.1-0.1,0-0.2,0.1-0.3
			c0.9-1.2,1.8-2.4,2.7-3.6c0,0,0.1-0.1,0.1-0.1c0.1-0.1,0.2,0,0.3,0c0.1,0.1,0.1,0.2,0.1,0.3c-0.1,0.6-0.3,1.2-0.4,1.9
			c0,0.2-0.1,0.4-0.1,0.6c0.3,0,0.6,0,0.9,0c0.1,0,0.3,0,0.4,0c0.1,0,0.2,0,0.3,0.1c0.1,0.1,0,0.2-0.1,0.3c-0.5,0.7-1,1.3-1.5,2
			c-0.4,0.5-0.8,1.1-1.2,1.6c-0.1,0.1-0.1,0.2-0.3,0.1c-0.2,0-0.3-0.2-0.2-0.3c0.1-0.5,0.2-1,0.3-1.5C27.1,17.8,27.1,17.5,27.2,17.1
			z"/>
	</g>
	<g>
		<path class="st0" d="M88.6,14.8c0-0.1,0-0.2,0-0.3c0.2,0,0.4,0,0.6,0c0,0.1,0,0.2,0,0.3c0.1,0,0.3,0,0.4-0.1
			c0.2-0.2,0.3-0.4,0.5-0.5c0.1-0.1,0.3-0.2,0.5-0.2c0.5,0,0.9,0,1.4,0c0.2,0,0.4,0.1,0.5,0.2c0.2,0.2,0.3,0.4,0.5,0.6
			c0,0,0.1,0.1,0.2,0.1c0.3,0,0.6,0,0.9,0c0.4,0,0.6,0.2,0.6,0.6c0,1,0,2.1,0,3.1c0,0.4-0.2,0.7-0.6,0.7c-1.9,0-3.8,0-5.7,0
			c-0.5,0-0.7-0.3-0.7-0.7c0-1,0-2,0-3c0-0.4,0.2-0.7,0.7-0.7C88.4,14.8,88.5,14.8,88.6,14.8z M92.8,16.6c-0.1-0.8-0.5-1.3-1.3-1.4
			c-0.5-0.1-1,0.1-1.3,0.4c0.1,0.1,0.1,0.1,0.2,0.2c1-0.6,2.1-0.2,2.2,0.8c-0.2,0-0.3,0-0.5,0c0.2,0.3,0.5,0.6,0.7,0.9
			c0.2-0.3,0.5-0.6,0.7-0.9C93.2,16.6,93,16.6,92.8,16.6z M90.5,16.9c-0.2-0.3-0.5-0.6-0.7-0.9c-0.2,0.3-0.4,0.6-0.7,0.9
			c0.2,0,0.4,0,0.5,0c0.1,0.7,0.5,1.2,1.2,1.4c0.6,0.2,1.1,0,1.5-0.4c-0.1-0.1-0.1-0.1-0.2-0.2c-0.5,0.4-1,0.5-1.5,0.2
			c-0.4-0.2-0.6-0.5-0.7-1C90.1,16.9,90.3,16.9,90.5,16.9z"/>
	</g>
	<path d="M0,165.9c0-0.3,0-0.5,0-0.8 M103.1,159.2c0,6.4,0,12.9,0.1,19.3c0,6.1-4.6,9.9-9.8,9.9c-22.3-0.1-44.5,0-66.8,0
		c-5.8,0-9.6-3.9-9.6-9.7c0-6.5,0-12.9,0-19.4"/>
</g>
<g id="Layer_1">
	<g>
		<path class="st1" d="M62.2,95.9c0-0.2-3.1-6.8-4.1-8c-1-1.3-2.5-6.1-2.1-9.6c0.4-3.4,0.7-2.6,0.7-2.6s0,0.3,0.8,0.2
			c0,0,0.4-0.4,0.4,1.3c0,1.7,0.5,8.8,3.7,11.2c2.1,3,4.5,8,4.5,8s-3.4,0.4-3.6,0C62.2,95.9,62.2,95.9,62.2,95.9z"/>
		<path class="st2" d="M41.6,87.7c-0.2,0,1.2-1.6,2.2-2.1c1-0.5,3.6-2.2,6.1-1.3c2.4,0.8,6.5,5,6.8,5.3c0.3,0.3-0.4,0.8-1.3,1.5
			c-0.9,0.6-4.9,2.8-6.5,1.6C47.3,91.2,42.3,87.7,41.6,87.7z"/>
		<g>
			<path class="st2" d="M59.7,75.3c0.2-0.1,5.2-2.1,7.2-7.8s2-13.2-0.9-14.7c0,0-1.8,4.1-3.3,5.6c-1.5,1.5-4.5,3.8-5.9,6.2
				c-1.4,2.5-0.5,5.6-0.4,7.1c0.1,1.5,0.8,2.5,0.5,3.3C56.6,75.8,56.2,76.4,59.7,75.3z"/>
			<path class="st2" d="M42.6,67.8c0,0,3-1.4,6.1,0.6c3.1,2,4.7,7.7,5,10.2c0.2,1.4,1,2.7-2.8,1.3c-3.8-1.4-5.4-2.2-6.4-4.1
				c-1-1.8-3-6.9-3.2-7.3c-0.2-0.4,0.1-0.6,0.1-0.6L42.6,67.8z"/>
			<path class="st3" d="M61.8,87.1c0.3,0.8,0.6,1.6,1,2.4c0.9,1.9,1.9,3.9,3,5.7c0.3,0.5,1.1,1,1.7,1c3.9,0.1,7.9,0,11.9,0
				c0.3,1.5,0.4,2.8-0.9,4.5c-1.1,1.4-0.9,3.9-1.3,5.9c-0.9,4.3-1.7,8.6-2.6,12.9c-0.2,0.9-0.6,1.6-1,2.5c1.4-7.2,2.7-14.5,4-21.7
				l-0.1,0.1c0.8-1,1.9-1.9,0.8-3.6c-0.3,0-0.6,0-1,0c-6.9,0-13.8-0.1-20.7,0c-4.6,0-9.3,0.2-13.9,0.4c-0.5,0-1.2,0.4-1.5,0.9
				c-0.2,0.4-0.2,1.6,0,1.7c2.3,1,2,3.4,2.5,5.2c1.7,6.6,3.3,13.3,4.9,20.1c7.6,0,15.2,0,22.8,0c0.4,0,0.7-0.6,1.1-0.9
				c-0.1-0.2-0.2-0.5-0.4-0.7c-7.7,0-15.4,0-23.1,0c0-0.2,0-0.4,0-0.6c0.8,0,1.7-0.1,2.5-0.1c6.6-0.1,13.1-0.2,19.7-0.3
				c0.8,0,1.5-0.3,2.2-0.4c-0.1,1.3-0.2,2.5-0.3,4c-8.5,0-16.9,0-25.2,0c-2-7.8-3.9-15.4-5.8-23c-0.2-1-0.2-1.9-1.5-2.4
				c-0.4-0.2-0.3-2.3-0.4-3.6c7.1-2.2,14.1-1,21.3-0.9c-1-2.7-1.3-5.4-4.5-6.1c-1.1-0.2-2.2-1.4-3-2.3c-3.8-4.1-6.5-4.6-11.2-1.5
				c-0.2,0.1-0.9,1.1-1.3,1.3c2.8-3.9,8.5-5,11.7-1.7c1,1.1,2,2.1,3.1,3.1c0.3,0.3,0.9,0.4,1.3,0.6c-1-3.5-2.1-7-3.1-10.4
				c0,0,0.6,0,0.6-0.1c0.3-2.1,1.8-3.8,1-6.2c-1.7-5.3-0.9-8.2,3.2-11.6c2.9-2.4,5.3-5,5.8-9.2c3.1,1.3,4.6,7.6,3.2,12.9
				c-2,7.4-7.7,12-11.6,11.2c7.7-1,13.7-16.9,9.1-22.8c-1,4.3-3.9,6.8-6.8,9.3c-3.2,2.7-3.3,6.1-2.3,9.9c0.3,1.1,0.3,2.5,0,3.6
				c-1.2,4.6-0.5,8.8,2,12.8c1.5,2.3,2.7,4.7,4.3,7.4c0.3,0,1,0,2.5,0c-1.1-2.1-1.8-4-3-5.6c-2.3-3.1-4.3-6.2-4.9-10.2
				c-0.2-1.3,0-3.1,0-4.5c0.7,3.2,1.3,6.9,2.1,10.3c1.2-0.8,2-1.3,2.8-1.9c-0.5,0.6-1.1,1.1-1.5,1.8C61.1,86.3,61.6,86.8,61.8,87.1z
				"/>
			<path class="st2" d="M61.8,87.1c-0.2-0.3-0.7-0.9-0.7-1c0.4-0.6,1-1.2,1.5-1.8c0.8-0.2,1.7-0.5,2.5-0.7c0.5-0.8,1-1.7,1.7-2.3
				c1.3-1.2,2.5-2.9,4-3.4c2.6-0.8,5.5-0.9,8.2-1.3c0.2,0.2,0.3,0.4,0.5,0.5c-1,0.7-1.9,1.4-2.9,2.1c0.1,0.1,0.3,0.3,0.4,0.4
				c1.7-1.7,3.4-3.4,5.2-5.1c0.1,0.2,0.3,0.3,0.4,0.5c-0.6,1.3-1.2,2.7-1.9,4c-2.6,4.7-6.3,7.3-11.6,6.2c-1.3-0.3-2.7-0.2-4-0.1
				c-0.7,0.1-1.4,0.7-2.1,1.1C62.7,86.7,62.3,86.9,61.8,87.1z"/>
			<path class="st3" d="M63.1,86.4c0.7-0.4,1.4-1,2.1-1.1c1.3-0.2,2.7-0.2,4,0.1c5.3,1,9-1.5,11.6-6.2c0.7-1.3,1.3-2.7,1.9-4
				c-0.1-0.2-0.3-0.3-0.4-0.5c-1.7,1.7-3.4,3.4-5.2,5.1c-0.1-0.1-0.3-0.3-0.4-0.4c1-0.7,1.9-1.4,2.9-2.1c-0.2-0.2-0.3-0.4-0.5-0.5
				c-2.8,0.4-5.6,0.4-8.2,1.3c-1.5,0.5-2.8,2.2-4,3.4c-0.7,0.6-1.1,1.5-1.7,2.3c1.6-4.8,3.9-6.6,8.5-7.1c2.7-0.3,5.3-1.4,7.9-2.1
				c0.7-0.2,1.4-0.5,2.5-1c-1.7,4.8-3.5,8.8-7.3,11.4c-2.8,1.9-5.8,1.3-8.8,1.2C66.4,86,64.7,86.3,63.1,86.4z"/>
			<path class="st3" d="M53.7,80.5c-0.5-3.7-1.6-9.7-5.1-11.6c-2.3-1.3-4.7-1.2-7.4-0.6c1.6,3.2,2.5,6.8,4.7,8.9
				c2.1,2,5.5,2.4,8.3,3.5c-1.8-0.3-3.7-0.4-5.5-0.9c-3.1-0.9-5.1-3.1-6-6.5c-0.5-1.8-1.2-3.5-1.9-5.3c2.4-1.4,6.6-1.1,8.9,0.8
				C52.1,70.7,54.6,76.6,53.7,80.5z"/>
			<path class="st3" d="M39.6,88c1-0.2,1.6-0.7,2.1-0.4c2,0.9,4.1,1.7,5.8,3.1c3,2.5,5.3,1.7,8.6-0.6c0.1-0.1,0.4-0.1,0.6-0.1
				c-1.4,3.1-6,4.5-8.7,2.2c-1.6-1.3-3.3-2.5-5.1-3.5C42.1,88.1,41,88.2,39.6,88z"/>
			<path class="st4" d="M77.7,100.3c-1.3,7.2-2.7,14.4-4,21.7c0,0,0.1-0.1,0-0.1c-0.8,0.1-1.5,0.4-2.2,0.4
				c-6.6,0.1-13.1,0.2-19.7,0.3c-0.8,0-1.7,0.1-2.5,0.1c0,0.2,0,0.4,0,0.6c7.7,0,15.4,0,23.1,0c0.1,0.2,0.2,0.5,0.4,0.7
				c-0.4,0.3-0.7,0.9-1.1,0.9c-7.6,0.1-15.2,0-22.8,0c-1.6-6.8-3.2-13.5-4.9-20.1c-0.5-1.8-0.2-4.2-2.5-5.2c-0.2-0.1-0.3-1.3,0-1.7
				c0.3-0.5,1-0.9,1.5-0.9c4.6-0.2,9.3-0.3,13.9-0.4c6.9-0.1,13.8,0,20.7,0c0.3,0,0.7,0,1,0C79.5,98.5,78.4,99.4,77.7,100.3
				c-0.8-0.2-1.6-0.8-2.3-0.8c-9.7,0-19.3,0-29,0.1c-0.6,0-1.2,0.2-1.8,0.3c0,0.1,0.1,0.3,0.1,0.4C55.6,100.3,66.6,100.3,77.7,100.3
				z"/>
			<path class="st3" d="M77.7,100.3c-11,0-22,0-33,0c0-0.1-0.1-0.3-0.1-0.4c0.6-0.1,1.2-0.3,1.8-0.3c9.7,0,19.3-0.1,29-0.1
				C76.1,99.6,76.8,100.1,77.7,100.3C77.6,100.4,77.7,100.3,77.7,100.3z"/>
		</g>
		<path class="st0" d="M46.8,86.6"/>
	</g>
	<circle class="st5" cx="60.7" cy="173.8" r="8.8"/>
	<g>
		<polyline class="st6" points="76.2,47.4 91.1,47.4 91.1,62.1 		"/>
		<polyline class="st6" points="29.7,62.3 29.7,47.4 44.3,47.4 		"/>
		<polyline class="st6" points="44.7,136.9 29.8,136.9 29.8,122.3 		"/>
		<polyline class="st6" points="91.2,122 91.2,136.9 76.6,136.9 		"/>
	</g>
	<circle class="st7" cx="60.7" cy="173.8" r="7.6"/>
	<g>
		<path d="M60.7,177c-1.1,0-2.1,0-3.2,0c-0.2,0-0.4-0.1-0.6-0.2c-0.1-0.1-0.2-0.3-0.2-0.4c0-1.4,0-2.9,0-4.3c0-0.4,0.3-0.6,0.7-0.6
			c0.5,0,1,0,1.5,0c0.1,0,0.2,0,0.2-0.1c0.1-0.2,0.2-0.5,0.4-0.7c0-0.1,0.1-0.1,0.2-0.1c0.7,0,1.4,0,2.1,0c0.1,0,0.1,0,0.2,0.1
			c0.1,0.2,0.2,0.5,0.3,0.7c0,0.1,0.1,0.1,0.2,0.1c0.5,0,0.9,0,1.4,0c0.4,0,0.7,0.3,0.7,0.7c0,1.4,0,2.7,0,4.1
			c0,0.4-0.3,0.7-0.8,0.7C62.8,177,61.7,177,60.7,177z M60.7,172.2c-1.2,0-2.1,0.9-2.1,2.1c0,1.2,0.9,2.1,2.1,2.1
			c1.1,0,2.1-0.9,2.1-2.1C62.8,173.1,61.8,172.2,60.7,172.2z"/>
		<path d="M60.7,175.6c-0.7,0-1.3-0.6-1.3-1.3c0-0.7,0.6-1.3,1.3-1.3c0.7,0,1.3,0.6,1.3,1.3C62,175,61.4,175.6,60.7,175.6z"/>
	</g>
	<g>
	</g>
	<g>
	</g>
	<g>
	</g>
	<g>
	</g>
	<g>
	</g>
	<g>
	</g>
</g>
</svg>
