<?xml version="1.0" encoding="utf-8"?>
<!-- Generator: Adobe Illustrator 24.2.0, SVG Export Plug-In . SVG Version: 6.00 Build 0)  -->
<svg version="1.1" id="Layer_1" xmlns="http://www.w3.org/2000/svg" xmlns:xlink="http://www.w3.org/1999/xlink" x="0px" y="0px"
	 viewBox="0 0 108.17 90.05" style="enable-background:new 0 0 108.17 90.05;" xml:space="preserve">
<style type="text/css">
	.st0{fill:#52875A;}
</style>
<g>
	<path class="st0" d="M54.07,90.02c-14.57,0-29.14-0.01-43.71,0.01c-3.2,0-6.18-0.76-8.1-3.41c-1.11-1.54-2.14-3.58-2.15-5.41
		c-0.15-19.69-0.13-39.39-0.07-59.08c0.02-5.05,3.99-8.7,9.32-8.75c6.76-0.06,13.53-0.07,20.29,0.02c1.48,0.02,2.25-0.41,2.86-1.75
		c1.58-3.43,3.38-6.77,4.97-10.2c0.52-1.13,1.17-1.45,2.36-1.45C49.29,0.05,58.73,0.06,68.17,0c1.32-0.01,1.95,0.45,2.49,1.6
		c1.53,3.29,3.27,6.49,4.78,9.79c0.67,1.47,1.46,2.05,3.15,2.02c6.46-0.12,12.94,0.1,19.4-0.09c6.08-0.18,10.24,4.39,10.18,10.08
		c-0.2,18.8-0.21,37.61,0,56.41c0.07,5.95-4.44,10.28-10.39,10.24C83.21,89.96,68.64,90.02,54.07,90.02z M54.22,22.69
		c-16.16-0.06-29.13,12.77-29.16,28.86c-0.03,15.88,12.92,28.98,28.81,29.14c15.73,0.16,29.06-13,29.16-28.79
		C83.13,35.76,70.3,22.75,54.22,22.69z"/>
	<path class="st0" d="M54.09,70.06c-10.34,0.02-18.54-8.13-18.55-18.45C35.52,41.47,44,32.99,54.11,33.05
		c10.07,0.06,18.36,8.36,18.44,18.47C72.63,61.79,64.41,70.04,54.09,70.06z"/>
</g>
<g>
</g>
<g>
</g>
<g>
</g>
<g>
</g>
<g>
</g>
<g>
</g>
</svg>
