<?xml version="1.0" encoding="utf-8"?>
<!-- Generator: Adobe Illustrator 24.2.0, SVG Export Plug-In . SVG Version: 6.00 Build 0)  -->
<svg version="1.1" id="Layer_1" xmlns="http://www.w3.org/2000/svg" xmlns:xlink="http://www.w3.org/1999/xlink" x="0px" y="0px"
	 viewBox="0 0 60.9 61" style="enable-background:new 0 0 60.9 61;" xml:space="preserve">
<style type="text/css">
	.st0{fill:#52875A;}
</style>
<g>
	<path class="st0" d="M0.1,36.4c0-5.3-0.1-10.5,0-15.8c0.2-4.8,4.3-8.7,9.1-8.7c8.2-0.1,16.3-0.1,24.5,0c1.3,0,2.2-0.3,3.1-1.3
		c2.8-2.9,5.6-5.7,8.5-8.5c2.8-2.7,6.1-2.8,8.9,0c1.6,1.5,3.1,3.1,4.7,4.7c2.7,2.8,2.7,6.1,0,8.9c-3,3-6.1,6.1-9.1,9.1
		c-0.5,0.5-0.7,1-0.7,1.7c0,8.2,0,16.3,0,24.5c0,4.6-2.3,8.2-6.4,9.6c-1.1,0.4-2.3,0.6-3.4,0.6c-9.9,0-19.7,0-29.6,0
		c-5.3,0-9.4-3.9-9.6-9.2C-0.1,46.7,0.1,41.5,0.1,36.4C0.1,36.4,0.1,36.4,0.1,36.4z M31.6,15.8c-0.6,0-0.8,0-1,0
		c-6.9,0-13.8,0-20.7,0c-3.7,0-6.1,2.4-6.1,6.1c0,9.7,0,19.3,0,29c0,3.8,2.3,6.1,6.1,6.1c9.7,0,19.4,0,29.1,0c3.8,0,6.1-2.4,6.1-6.2
		c0-6.8,0-13.6,0-20.4c0-0.3,0-0.6-0.1-1.2c-0.4,0.5-0.7,0.9-1,1.1c-3.5,3.5-6.9,6.9-10.4,10.4c-2.6,2.6-5.6,4.5-9.1,5.7
		c-2.9,1-5.8,1.9-8.7,2.9c-1.3,0.4-2.5,0.5-3.5-0.5c-1.1-1.1-1.4-2.4-0.8-3.9c1-2.8,1.8-5.6,2.7-8.3c1-3.1,2.5-6,4.8-8.4
		c3.2-3.3,6.4-6.5,9.6-9.8C29.6,17.7,30.5,16.8,31.6,15.8z M29.6,39.1c7.2-7.1,14.2-14.1,21.1-21c-2.6-2.6-5.3-5.3-7.9-7.8
		c-6.9,6.9-14,14-21,20.9C24.5,33.8,27.1,36.5,29.6,39.1z M54.1,15.3c0.7-0.8,1.6-1.7,2.3-2.6c0.8-0.9,0.8-2,0-2.8
		C54.7,8,52.8,6.2,51,4.4c-0.8-0.7-1.7-0.7-2.4,0c-1,0.9-1.9,1.8-2.8,2.7C48.5,9.8,51.2,12.4,54.1,15.3z M26.5,41.7
		c-2.5-2.5-4.8-4.8-7.3-7.3c-1.2,3.6-2.5,7.2-3.7,10.8c0.1,0.1,0.2,0.1,0.3,0.2C19.4,44.2,22.9,42.9,26.5,41.7z"/>
</g>
</svg>
