<?xml version="1.0" encoding="utf-8"?>
<!-- Generator: Adobe Illustrator 24.2.0, SVG Export Plug-In . SVG Version: 6.00 Build 0)  -->
<svg version="1.1" id="Layer_1" xmlns="http://www.w3.org/2000/svg" xmlns:xlink="http://www.w3.org/1999/xlink" x="0px" y="0px"
	 viewBox="0 0 43.51 58.88" style="enable-background:new 0 0 43.51 58.88;" xml:space="preserve">
<style type="text/css">
	.st0{fill:#52875A;}
</style>
<g>
	<path class="st0" d="M24.47,31.11c0.36,9.56,0.57,16.31,0.89,23.04c0.06,1.36-0.16,2.02-1.69,1.86c-1.26-0.13-2.56-0.11-3.83,0
		c-1.39,0.12-1.75-0.42-1.69-1.75c0.31-6.74,0.56-13.48,0.81-20.22c0.25-6.85,0.46-13.69,0.7-20.54c0.04-1.02-0.1-2.12,1.51-2.07
		c2.53,0.06,2.65,0.11,2.72,2.12C24.11,20.34,24.34,27.13,24.47,31.11z"/>
	<path class="st0" d="M21.86,58.85c-6.49,0-12.98,0-19.47,0c-0.51,0-1.06,0.07-1.52-0.09c-0.36-0.13-0.87-0.58-0.85-0.85
		c0.03-0.4,0.4-0.9,0.77-1.11c0.36-0.2,0.89-0.12,1.35-0.12c13.13,0,26.27,0,39.4,0c0.36,0,0.81-0.12,1.05,0.06
		c0.4,0.28,0.84,0.73,0.91,1.17c0.04,0.25-0.56,0.73-0.96,0.9c-0.4,0.16-0.91,0.06-1.37,0.06C34.74,58.86,28.3,58.85,21.86,58.85z"
		/>
	<path class="st0" d="M1.99,16.73c2.96,0.1,5.19,1.05,6.83,3.17c1.18,1.53,1.28,3.19,0.29,4.36c-0.97,1.14-2.66,1.25-4.33,0.3
		c-2.57-1.46-3.73-3.78-4.05-6.62C0.59,16.62,1.5,16.74,1.99,16.73z"/>
	<path class="st0" d="M25.03,6.53c-0.14,0.53-0.15,1.68-0.71,2.43c-0.6,0.81-1.67,1.62-2.62,1.73c-1.14,0.14-2.16-0.7-2.67-1.91
		c-1.17-2.76-0.21-6.8,2.16-8.65c0.26-0.2,1.01-0.16,1.25,0.07C24.08,1.78,24.98,3.73,25.03,6.53z"/>
	<path class="st0" d="M42.8,17.55c-0.31,3.66-1.81,6.02-4.78,7.37c-1.25,0.57-2.45,0.38-3.4-0.53c-0.97-0.92-1.08-2.11-0.56-3.37
		c1.1-2.64,5.24-4.9,7.98-4.23C42.42,16.89,42.69,17.44,42.8,17.55z"/>
	<path class="st0" d="M17.74,35.2c-1.02-0.96-2.05-1.92-3.07-2.89c-1.78-1.68-3.55-3.37-5.34-5.04c-0.77-0.72-0.89-1.34-0.03-2.16
		c1.81-1.72,1.77-1.76,3.79-0.08c1.53,1.26,3.1,2.49,4.57,3.82c0.42,0.38,0.71,1.08,0.75,1.65c0.1,1.5,0.03,3.01,0.03,4.51
		C18.21,35.07,17.97,35.14,17.74,35.2z"/>
	<path class="st0" d="M25.3,35.05c-0.06-1.22-0.04-2.45-0.2-3.65c-0.18-1.42,0.26-2.36,1.45-3.21c1.7-1.21,3.24-2.64,4.85-3.97
		c0.68-0.56,1.46-0.98,2.07-0.01c0.56,0.9,2.39,1.53,0.71,3.07c-2.81,2.58-5.52,5.25-8.28,7.89C25.7,35.13,25.5,35.09,25.3,35.05z"
		/>
	<path class="st0" d="M35.67,26.47c1.63-0.68,3.06-1.64,4.57-1.78c1.03-0.09,2.17,0.95,3.24,1.53c0.06,0.03,0,0.49-0.13,0.66
		c-1.31,1.85-5.93,1.99-7.36,0.22C35.84,26.91,35.77,26.66,35.67,26.47z"/>
	<path class="st0" d="M4.46,28.49c-0.96-0.19-1.66-0.2-2.23-0.48C1.44,27.63,0.74,27.04,0,26.54c0.42-0.45,0.79-0.99,1.28-1.35
		c0.89-0.65,1.77-1.04,2.89-0.21c0.69,0.51,1.68,0.63,2.53,0.93c0.36,0.13,0.71,0.27,1.07,0.41c-0.19,0.38-0.29,0.96-0.6,1.12
		C6.24,27.91,5.23,28.2,4.46,28.49z"/>
	<path class="st0" d="M14.46,5.17c2.34,0.24,3.1,0.93,3.58,2.7c0.19,0.72,0.57,1.39,0.85,2.09c0.16,0.4,0.27,0.81,0.41,1.21
		c-0.52,0.06-1.25,0.38-1.52,0.15c-1.2-1.03-2.32-2.16-3.35-3.37c-0.36-0.42-0.47-1.14-0.47-1.73C13.96,5.81,14.34,5.4,14.46,5.17z"
		/>
	<path class="st0" d="M11.1,22.79c-0.86-1.51-2-2.85-2.37-4.38c-0.24-0.96,0.65-2.21,1.09-3.3c0.04-0.09,0.58-0.11,0.78,0.01
		C12.9,16.57,13.2,21.12,11.1,22.79z"/>
	<path class="st0" d="M33.38,14.77c1.9,2.1,1.91,2.87,0.55,5.05c-0.55,0.88-0.81,1.94-1.23,2.99c-1.25-0.37-1.6-1.35-1.67-2.43
		C30.87,18.17,31.56,16.3,33.38,14.77z"/>
	<path class="st0" d="M24.9,11.46c-0.6-0.07-1.02-0.32-0.49-1.25c0.47-0.83,0.89-1.71,1.15-2.62c0.41-1.45,1.88-2.62,3.32-2.41
		c0.27,0.04,0.66,0.36,0.71,0.62C30.05,7.81,27.11,11.5,24.9,11.46z"/>
</g>
<g>
</g>
<g>
</g>
<g>
</g>
<g>
</g>
<g>
</g>
<g>
</g>
</svg>
