<?xml version="1.0" encoding="utf-8"?>
<!-- Generator: Adobe Illustrator 24.2.0, SVG Export Plug-In . SVG Version: 6.00 Build 0)  -->
<svg version="1.1" id="Layer_1" xmlns="http://www.w3.org/2000/svg" xmlns:xlink="http://www.w3.org/1999/xlink" x="0px" y="0px"
	 viewBox="0 0 72.67 72.67" style="enable-background:new 0 0 72.67 72.67;" xml:space="preserve">
<style type="text/css">
	.st0{fill:#52875A;}
	.st1{fill:#FFFFFE;}
</style>
<circle class="st0" cx="36.34" cy="36.34" r="36.34"/>
<g>
	<path class="st1" d="M32.36,41.91c2.46,0,4.8,0,7.23,0c0,3.75,0,7.44,0,11.17c4.39,0,8.69,0,13.09,0c0-0.35,0-0.66,0-0.98
		c0-4.62-0.02-9.24,0.02-13.85c0.01-0.81-0.26-1.31-0.89-1.8c-3.83-2.97-7.62-5.99-11.43-8.99c-1.47-1.16-2.94-2.31-4.38-3.44
		c-0.12,0.06-0.17,0.07-0.21,0.1c-5.33,4.2-10.65,8.4-15.98,12.59c-0.4,0.31-0.55,0.64-0.55,1.15c0.02,4.83,0.01,9.67,0.01,14.5
		c0,0.23,0.03,0.47,0.04,0.7c4.36,0,8.67,0,13.03,0C32.36,49.33,32.36,45.65,32.36,41.91z M35.98,22.14
		c6.73,5.31,13.41,10.57,20.14,15.88c0.82-1.04,1.6-2.04,2.42-3.08c-1.8-1.42-3.52-2.82-5.29-4.16c-0.5-0.38-0.69-0.78-0.68-1.4
		c0.03-3.36,0.01-6.71,0.01-10.07c0-0.29,0-0.58,0-0.85c-0.15-0.05-0.22-0.09-0.3-0.09c-2.28-0.01-4.56,0-6.84-0.01
		c-0.4,0-0.6,0.13-0.57,0.56c0.02,0.32,0,0.64,0,0.97c0,1.38,0,2.76,0,4.28c-3.02-2.38-5.9-4.64-8.8-6.92
		c-7.51,5.92-14.97,11.81-22.47,17.72c0.81,1.01,1.57,1.97,2.37,2.96C22.67,32.64,29.3,27.41,35.98,22.14z"/>
	<path class="st1" d="M32.36,41.91c0,3.75,0,7.42,0,11.15c-4.36,0-8.67,0-13.03,0c-0.02-0.23-0.04-0.46-0.04-0.7
		c0-4.83,0.01-9.67-0.01-14.5c0-0.51,0.15-0.84,0.55-1.15c5.33-4.19,10.66-8.39,15.98-12.59c0.04-0.03,0.1-0.05,0.21-0.1
		c1.44,1.13,2.91,2.28,4.38,3.44c3.81,3,7.6,6.01,11.43,8.99c0.63,0.49,0.9,0.99,0.89,1.8c-0.04,4.62-0.02,9.24-0.02,13.85
		c0,0.32,0,0.63,0,0.98c-4.4,0-8.71,0-13.09,0c0-3.73,0-7.43,0-11.17C37.16,41.91,34.81,41.91,32.36,41.91z"/>
	<path class="st1" d="M35.98,22.14c-6.68,5.27-13.31,10.5-20.01,15.77c-0.8-1-1.56-1.95-2.37-2.96c7.5-5.91,14.96-11.8,22.47-17.72
		c2.9,2.28,5.78,4.55,8.8,6.92c0-1.53,0-2.9,0-4.28c0-0.32,0.02-0.65,0-0.97c-0.03-0.43,0.17-0.56,0.57-0.56
		c2.28,0.01,4.56,0.01,6.84,0.01c0.07,0,0.15,0.04,0.3,0.09c0,0.28,0,0.57,0,0.85c0,3.36,0.02,6.71-0.01,10.07
		c-0.01,0.62,0.18,1.02,0.68,1.4c1.76,1.34,3.49,2.74,5.29,4.16c-0.82,1.04-1.6,2.04-2.42,3.08C49.39,32.72,42.71,27.45,35.98,22.14
		z"/>
</g>
</svg>
