<?xml version="1.0" encoding="utf-8"?>
<!-- Generator: Adobe Illustrator 24.2.0, SVG Export Plug-In . SVG Version: 6.00 Build 0)  -->
<svg version="1.1" id="Layer_1" xmlns="http://www.w3.org/2000/svg" xmlns:xlink="http://www.w3.org/1999/xlink" x="0px" y="0px"
	 viewBox="0 0 72.67 72.67" style="enable-background:new 0 0 72.67 72.67;" xml:space="preserve">
<style type="text/css">
	.st0{fill:#52875A;}
	.st1{fill:#FFFFFE;}
</style>
<circle class="st0" cx="36.34" cy="36.34" r="36.34"/>
<g>
	<path class="st1" d="M12.9,35.45C12.89,22.9,23.27,12.58,35.9,12.57c12.65-0.01,23.01,10.36,23.03,23.06
		c0.03,12.52-10.36,22.91-22.97,22.96C23.25,58.65,12.9,48.27,12.9,35.45z M37.77,28.45c0-1.76,0-3.52,0-5.29
		c0-1.25-0.45-2.2-1.82-2.22c-1.36-0.02-1.88,0.86-1.88,2.14c0.01,3.99-0.06,7.98,0.06,11.97c0.02,0.78,0.59,1.84,1.23,2.24
		c2.89,1.82,5.9,3.45,8.87,5.14c1.06,0.6,2.12,0.79,2.81-0.45c0.67-1.19,0.08-2.06-1.01-2.68c-1.75-1.01-3.41-2.22-5.25-3
		c-2.43-1.03-3.5-2.58-3.03-5.22C37.9,30.23,37.77,29.33,37.77,28.45z"/>
	<path class="st0" d="M37.77,28.45c0,0.88,0.13,1.78-0.02,2.64c-0.47,2.64,0.6,4.19,3.03,5.22c1.84,0.78,3.5,2,5.25,3
		c1.09,0.63,1.68,1.49,1.01,2.68c-0.69,1.24-1.76,1.05-2.81,0.45c-2.97-1.7-5.98-3.33-8.87-5.14c-0.64-0.41-1.21-1.46-1.23-2.24
		c-0.12-3.99-0.05-7.98-0.06-11.97c0-1.29,0.53-2.16,1.88-2.14c1.37,0.02,1.83,0.97,1.82,2.22C37.76,24.92,37.77,26.69,37.77,28.45z
		"/>
</g>
</svg>
