<?xml version="1.0" encoding="utf-8"?>
<!-- Generator: Adobe Illustrator 24.2.0, SVG Export Plug-In . SVG Version: 6.00 Build 0)  -->
<svg version="1.1" id="Layer_1" xmlns="http://www.w3.org/2000/svg" xmlns:xlink="http://www.w3.org/1999/xlink" x="0px" y="0px"
	 viewBox="0 0 72.67 72.67" style="enable-background:new 0 0 72.67 72.67;" xml:space="preserve">
<style type="text/css">
	.st0{fill:#52875A;}
	.st1{fill:#FFFFFE;}
</style>
<circle class="st0" cx="36.34" cy="36.34" r="36.34"/>
<g>
	<path class="st1" d="M36.39,57.99c-12.41,0.12-22.68-10.12-22.74-22.68c-0.06-12.45,10.21-22.73,22.7-22.73
		c12.49,0.01,22.59,10,22.68,22.64C59.11,47.63,49.17,57.88,36.39,57.99z M56.49,35.32c0.06-11.1-8.84-20.06-20.06-20.19
		c-11.08-0.13-20.17,8.91-20.23,20.11c-0.06,11.1,8.84,20.06,20.06,20.19C47.35,55.56,56.44,46.53,56.49,35.32z"/>
	<path class="st1" d="M37.68,33.86c2.18,0,4.22-0.01,6.27,0.01c0.36,0,0.82-0.06,1.05,0.14c0.4,0.34,0.79,0.81,0.92,1.29
		c0.16,0.6-0.24,1.1-0.87,1.28c-0.31,0.09-0.65,0.14-0.97,0.14c-2.41,0.01-4.82,0.01-7.23,0c-1.48,0-1.94-0.47-1.94-1.94
		c0-4.43,0-8.86,0-13.29c0-0.12,0-0.24,0-0.36c0.03-0.93,0.59-1.54,1.41-1.54c0.78,0.01,1.34,0.57,1.35,1.5
		c0.03,2.74,0.02,5.49,0.02,8.23C37.68,30.78,37.68,32.25,37.68,33.86z"/>
</g>
</svg>
