<?xml version="1.0" encoding="utf-8"?>
<!-- Generator: Adobe Illustrator 24.2.0, SVG Export Plug-In . SVG Version: 6.00 Build 0)  -->
<svg version="1.1" id="Layer_1" xmlns="http://www.w3.org/2000/svg" xmlns:xlink="http://www.w3.org/1999/xlink" x="0px" y="0px"
	 viewBox="0 0 80.01 80" style="enable-background:new 0 0 80.01 80;" xml:space="preserve">
<style type="text/css">
	.st0{fill:#52875A;}
</style>
<g>
	<path class="st0" d="M45.3,34.7c0.81,0,1.45,0,2.08,0c8.95,0,17.9,0.01,26.85,0c2.25,0,4.07,0.78,5.14,2.84
		c0.99,1.9,0.83,3.79-0.38,5.54c-1.19,1.72-2.95,2.22-4.96,2.22c-8.83-0.02-17.66-0.01-26.49-0.01c-0.65,0-1.3,0-2.23,0
		c0,0.7,0,1.33,0,1.95c0,8.95-0.01,17.9,0.01,26.85c0,2.24-0.69,4.09-2.73,5.2c-3.65,2-7.79-0.49-7.85-4.79
		c-0.08-5.87-0.02-11.73-0.02-17.6c0-3.78,0-7.57,0-11.61c-0.74,0-1.37,0-1.99,0c-9.01,0-18.02,0-27.02,0c-2.18,0-3.94-0.79-5-2.76
		c-0.98-1.82-0.9-3.67,0.19-5.4C2.03,35.3,3.8,34.69,5.9,34.7c8.89,0.02,17.78,0.01,26.67,0.01c0.64,0,1.28,0,2.14,0
		c0-0.78,0-1.41,0-2.04c0-9.01-0.04-18.02,0.02-27.02c0.03-4.5,4.32-7.04,8.03-4.83c1.93,1.15,2.56,2.97,2.55,5.13
		c-0.02,8.89-0.01,17.78-0.01,26.67C45.3,33.25,45.3,33.88,45.3,34.7z"/>
</g>
<g>
</g>
<g>
</g>
<g>
</g>
<g>
</g>
<g>
</g>
<g>
</g>
</svg>
