<?xml version="1.0" encoding="utf-8"?>
<!-- Generator: Adobe Illustrator 24.2.0, SVG Export Plug-In . SVG Version: 6.00 Build 0)  -->
<svg version="1.1" id="Layer_1" xmlns="http://www.w3.org/2000/svg" xmlns:xlink="http://www.w3.org/1999/xlink" x="0px" y="0px"
	 viewBox="0 0 72.67 72.67" style="enable-background:new 0 0 72.67 72.67;" xml:space="preserve">
<style type="text/css">
	.st0{fill:#52875A;}
	.st1{fill:#FFFFFE;}
</style>
<circle class="st0" cx="36.34" cy="36.34" r="36.34"/>
<g>
	<path class="st1" d="M32.66,29.07c0,0.54,0,0.87,0,1.23c-3.13,0.29-6.31,0.13-9.28,1.62c1.15,1.23,2.58,1.27,3.87,1.35
		c4.09,0.25,8.2,0.47,12.29,0.44c2.94-0.03,5.88-0.45,8.81-0.78c0.64-0.07,1.24-0.48,1.86-0.73c0-0.12,0.01-0.25,0.01-0.37
		c-0.67-0.25-1.32-0.64-2.01-0.73c-2.3-0.3-4.61-0.49-6.92-0.71c-0.28-0.03-0.56-0.03-0.9-0.05c0-0.38,0-0.71,0-1.17
		c1.15,0.06,2.31,0.1,3.47,0.18c2.83,0.19,5.66,0.45,8.38,1.36c1.29,0.44,1.4,0.63,1.4,2c0,2.1-0.05,4.2,0.02,6.29
		c0.03,0.94-0.32,1.5-1.16,1.74c-0.68,0.2-0.9,0.65-1.06,1.28c-1.01,4-2.13,7.98-3.07,12c-0.62,2.66-2.32,4.26-4.71,5.16
		c-4.75,1.78-9.56,1.77-14.29-0.02c-2.41-0.91-4.13-2.52-4.73-5.24c-0.9-4.06-2.01-8.07-2.99-12.11c-0.13-0.54-0.34-0.86-0.89-1
		c-0.95-0.24-1.29-0.85-1.26-1.85c0.07-2.15,0.07-4.31,0-6.46c-0.03-0.96,0.39-1.49,1.21-1.71c1.41-0.38,2.82-0.79,4.26-0.98
		C27.49,29.48,30.04,29.31,32.66,29.07z M22.45,35.3c0,0.73,0.03,1.56-0.01,2.39c-0.02,0.46,0.13,0.72,0.57,0.78
		c0.8,0.1,1.01,0.64,1.18,1.34c1.13,4.63,2.32,9.24,3.45,13.87c0.27,1.11,0.83,2.02,1.89,2.39c1.5,0.53,3.04,1.09,4.61,1.27
		c3.03,0.33,6.08,0.28,8.96-1.02c1.2-0.54,2.1-1.31,2.43-2.69c1.06-4.35,2.18-8.68,3.25-13.03c0.27-1.09,0.37-2.27,1.9-2.25
		c0-1.07,0-2.05,0-2.92C41.27,37.32,31.9,37.27,22.45,35.3z"/>
	<path class="st1" d="M24.24,9.49c1.83,2.25,4.36,3.29,6.78,4.43c4.51,2.12,5.36,6.45,4.7,10.58c-1.24-1.49-2.57-3.12-3.96-4.71
		c-0.54-0.62-1.22-1.13-1.84-1.68c-0.34-0.31-0.76-0.46-1.01,0c-0.12,0.22-0.01,0.74,0.19,0.92c1.94,1.8,3.87,3.61,5.27,5.88
		c1.4,2.26,1.71,4.78,1.51,7.37c-0.02,0.23-0.49,0.42-0.75,0.63c-0.16-0.26-0.46-0.52-0.45-0.78c0.04-1.62-0.07-3.2-0.62-4.75
		c-0.18-0.5-0.41-0.62-0.92-0.64c-1.71-0.08-3.46-0.03-5.12-0.39c-3.83-0.84-5.85-3.49-5.88-7.4C22.11,15.69,23.04,12.62,24.24,9.49
		z"/>
	<path class="st1" d="M37.65,25.24c-0.51-2.26,0.35-4.79,2.37-5.86c0.68-0.36,1.39-0.69,2.05-1.09c0.94-0.58,1.86-1.21,2.93-1.91
		c0.33,1.24,0.77,2.55,1.02,3.9c0.18,0.97,0.26,2.02,0.11,2.99c-0.35,2.33-2.02,3.75-4.49,4.01c-0.31,0.03-0.64,0.12-0.94,0.08
		c-1.08-0.15-1.5,0.43-1.59,1.38c-0.1,1.02-0.21,2.04-0.27,3.07c-0.03,0.45-0.01,0.91-0.58,0.97c-0.62,0.07-0.67-0.4-0.7-0.85
		c-0.27-3.6,1.02-6.62,3.46-9.2c0.14-0.15,0.29-0.28,0.44-0.41c0.32-0.28,0.63-0.59,0.27-1.01c-0.38-0.45-0.75-0.16-1.01,0.16
		c-0.98,1.19-1.93,2.39-2.89,3.59C37.77,25.12,37.72,25.17,37.65,25.24z"/>
</g>
</svg>
