<?xml version="1.0" encoding="utf-8"?>
<!-- Generator: Adobe Illustrator 24.1.3, SVG Export Plug-In . SVG Version: 6.00 Build 0)  -->
<svg version="1.1" id="Layer_1"  xmlns="http://www.w3.org/2000/svg" xmlns:xlink="http://www.w3.org/1999/xlink" x="0px" y="0px" 
	 viewBox="0 0 95.69 115.24" style="enable-background:new 0 0 95.69 115.24;" xml:space="preserve">
<g>
	<path d="M23.38,101.85c2.99-3.01,5.78-5.79,8.53-8.59c1.27-1.29,2.89-1.63,4.33-0.9c1,0.51,2.12,1.84,2.18,2.86
		c0.08,1.24-0.62,2.8-1.48,3.77c-2.43,2.74-5.13,5.24-7.72,7.84c-2.29,2.29-4.54,4.62-6.87,6.86c-2.1,2.02-3.97,2.07-6.02,0.05
		c-4.97-4.9-9.89-9.84-14.78-14.82c-1.8-1.83-1.84-4-0.32-5.57c1.62-1.67,3.8-1.67,5.69,0.19c2.72,2.66,5.33,5.43,8.33,8.5
		c0-29.76,0-59,0-88.46c-0.47,0.37-0.9,0.65-1.26,1.01C11.6,17,9.27,19.45,6.84,21.79c-1.89,1.83-4.1,1.86-5.74,0.23
		c-1.55-1.54-1.49-3.69,0.33-5.54c4.94-5.03,9.9-10.03,14.91-14.99c1.97-1.95,3.89-2,5.87-0.05c5.12,5.05,10.18,10.16,15.2,15.31
		c1.61,1.65,1.59,3.74,0.16,5.21c-1.51,1.56-3.74,1.74-5.4,0.15c-2.91-2.78-5.66-5.71-8.8-8.91
		C23.38,42.91,23.38,72.15,23.38,101.85z"/>
</g>
<g>
	<path d="M74.56,65.07c-1.89,0-3.54,0-5.34,0c0.39-1.75,0.9-3.4,1.12-5.1c0.58-4.49,1.11-8.98,1.53-13.48
		c0.29-3.04,0.34-6.09,0.55-9.14c0.1-1.43-0.68-2.38-1.59-3.26c-0.28-0.27-0.83-0.51-1.17-0.43c-1.55,0.4-2.91-0.07-4.22-0.76
		c-2.47-1.3-4.67-2.91-5.86-5.58c-0.54-1.22-1.08-2.44-1.65-3.73c3.85-0.64,7.42-0.43,10.38,2.35c0.73,0.69,1.23,1.63,1.87,2.43
		c0.98,1.23,1.13,2.53,0.79,4.07c-0.12,0.56,0.71,1.33,1.11,2c0.1-0.04,0.2-0.08,0.3-0.12c0.51-7.13,1.02-14.26,1.54-21.49
		c0.72,13.98,1.42,27.84,2.13,41.61c1.5-0.99,2.02-2.37,1.72-4.26c-0.19-1.17-0.25-2.31,0.94-3.22c0.65-0.5,0.92-1.48,1.39-2.22
		c2.85-4.5,7.23-5.66,12.17-5.58c1.12,0.02,2.23,0.17,3.43,0.26c-0.94,2.2-1.66,4.46-2.84,6.44c-0.89,1.49-2.37,2.65-3.62,3.91
		c-2.13,2.13-4.81,3.19-7.71,3.75c-0.28,0.05-0.62-0.02-0.89-0.14c-1.42-0.64-2.27,0.17-3.11,1.13c-1.54,1.76-2.04,3.86-2.21,6.12
		C75.18,62.11,74.82,63.55,74.56,65.07z"/>
	<polygon points="50.58,65.07 95.69,65.07 83.76,102.4 59.01,102.4 	"/>
</g>
</svg>
