<?xml version="1.0" encoding="utf-8"?>
<!-- Generator: Adobe Illustrator 24.2.0, SVG Export Plug-In . SVG Version: 6.00 Build 0)  -->
<svg version="1.1" id="Layer_1" xmlns="http://www.w3.org/2000/svg" xmlns:xlink="http://www.w3.org/1999/xlink" x="0px" y="0px"
	 viewBox="0 0 45.59 50.79" style="enable-background:new 0 0 45.59 50.79;" xml:space="preserve">
<style type="text/css">
	.st0{fill:#52875A;}
</style>
<g>
	<g>
		<path class="st0" d="M10.3,44.88c1.32-1.33,2.55-2.55,3.76-3.79c0.56-0.57,1.28-0.72,1.91-0.4c0.44,0.22,0.93,0.81,0.96,1.26
			c0.03,0.55-0.27,1.24-0.65,1.66c-1.07,1.21-2.26,2.31-3.4,3.46c-1.01,1.01-2,2.03-3.03,3.02C8.93,51,8.1,51.02,7.2,50.13
			c-2.19-2.16-4.36-4.34-6.51-6.53c-0.79-0.81-0.81-1.76-0.14-2.46c0.71-0.74,1.67-0.74,2.51,0.08c1.2,1.17,2.35,2.39,3.67,3.75
			c0-13.11,0-26,0-38.98c-0.21,0.16-0.4,0.29-0.56,0.45C5.11,7.49,4.09,8.57,3.01,9.6c-0.83,0.81-1.81,0.82-2.53,0.1
			C-0.2,9.03-0.17,8.08,0.63,7.26C2.81,5.05,5,2.84,7.2,0.66c0.87-0.86,1.71-0.88,2.58-0.02c2.26,2.23,4.48,4.48,6.7,6.75
			c0.71,0.73,0.7,1.65,0.07,2.3c-0.66,0.69-1.65,0.77-2.38,0.07c-1.28-1.22-2.5-2.52-3.88-3.92C10.3,18.91,10.3,31.79,10.3,44.88z"
			/>
	</g>
	<g>
		<path class="st0" d="M33.68,29.45c-1.07,0-2,0-3.01,0c0.22-0.99,0.5-1.92,0.63-2.87c0.33-2.53,0.62-5.06,0.86-7.6
			c0.16-1.71,0.19-3.44,0.31-5.15c0.06-0.8-0.38-1.34-0.9-1.84c-0.16-0.15-0.47-0.29-0.66-0.24c-0.87,0.23-1.64-0.04-2.38-0.43
			c-1.39-0.73-2.64-1.64-3.3-3.15c-0.31-0.69-0.61-1.38-0.93-2.1c2.17-0.36,4.19-0.24,5.85,1.33c0.41,0.39,0.69,0.92,1.05,1.37
			c0.55,0.69,0.64,1.42,0.44,2.3c-0.07,0.31,0.4,0.75,0.63,1.13c0.06-0.02,0.11-0.04,0.17-0.07C32.74,8.1,33.02,4.08,33.32,0
			c0.4,7.89,0.8,15.7,1.2,23.46c0.84-0.56,1.14-1.34,0.97-2.4c-0.11-0.66-0.14-1.3,0.53-1.82c0.36-0.28,0.52-0.83,0.78-1.25
			c1.6-2.54,4.08-3.19,6.86-3.14c0.63,0.01,1.26,0.09,1.93,0.15c-0.53,1.24-0.93,2.51-1.6,3.63c-0.5,0.84-1.33,1.49-2.04,2.21
			c-1.2,1.2-2.71,1.8-4.35,2.11c-0.16,0.03-0.35-0.01-0.5-0.08c-0.8-0.36-1.28,0.1-1.76,0.64c-0.87,0.99-1.15,2.17-1.25,3.45
			C34.03,27.78,33.83,28.6,33.68,29.45z"/>
		<polygon class="st0" points="20.16,29.45 45.59,29.45 38.87,50.5 24.91,50.5 		"/>
	</g>
</g>
</svg>
