<?xml version="1.0" encoding="utf-8"?>
<!-- Generator: Adobe Illustrator 24.2.0, SVG Export Plug-In . SVG Version: 6.00 Build 0)  -->
<svg version="1.1" id="Layer_1" xmlns="http://www.w3.org/2000/svg" xmlns:xlink="http://www.w3.org/1999/xlink" x="0px" y="0px"
	 viewBox="0 0 72.67 72.67" style="enable-background:new 0 0 72.67 72.67;" xml:space="preserve">
<style type="text/css">
	.st0{fill:#52875A;}
	.st1{fill:#FFFFFE;}
</style>
<circle class="st0" cx="36.34" cy="36.34" r="36.34"/>
<g>
	<g>
		<path class="st1" d="M38.99,57.21c1.46-1.47,2.81-2.82,4.15-4.19c0.62-0.63,1.41-0.79,2.11-0.44c0.49,0.25,1.03,0.9,1.06,1.4
			c0.04,0.6-0.3,1.37-0.72,1.84c-1.19,1.33-2.5,2.55-3.76,3.82c-1.11,1.12-2.21,2.25-3.35,3.34c-1.02,0.99-1.94,1.01-2.93,0.02
			c-2.42-2.39-4.82-4.79-7.2-7.22c-0.88-0.89-0.9-1.95-0.15-2.71c0.79-0.81,1.85-0.81,2.77,0.09c1.32,1.3,2.6,2.65,4.06,4.14
			c0-14.5,0-28.75,0-43.1c-0.23,0.18-0.44,0.32-0.62,0.49c-1.16,1.17-2.3,2.36-3.48,3.5c-0.92,0.89-2,0.9-2.8,0.11
			c-0.76-0.75-0.72-1.8,0.16-2.7c2.41-2.45,4.82-4.89,7.27-7.3c0.96-0.95,1.89-0.97,2.86-0.02c2.49,2.46,4.96,4.95,7.41,7.46
			c0.79,0.81,0.77,1.82,0.08,2.54c-0.73,0.76-1.82,0.85-2.63,0.08c-1.42-1.35-2.76-2.78-4.29-4.34
			C38.99,28.49,38.99,42.73,38.99,57.21z"/>
	</g>
</g>
</svg>
