<?xml version="1.0" encoding="utf-8"?>
<!-- Generator: Adobe Illustrator 24.2.0, SVG Export Plug-In . SVG Version: 6.00 Build 0)  -->
<svg version="1.1" id="Layer_1" xmlns="http://www.w3.org/2000/svg" xmlns:xlink="http://www.w3.org/1999/xlink" x="0px" y="0px"
	 viewBox="0 0 46.94 56.15" style="enable-background:new 0 0 46.94 56.15;" xml:space="preserve">
<style type="text/css">
	.st0{fill:#FFFFFE;}
</style>
<g>
	<g>
		<path class="st0" d="M11.39,49.63c1.46-1.47,2.81-2.82,4.15-4.19c0.62-0.63,1.41-0.79,2.11-0.44c0.49,0.25,1.03,0.9,1.06,1.4
			c0.04,0.6-0.3,1.37-0.72,1.84c-1.19,1.33-2.5,2.55-3.76,3.82c-1.11,1.12-2.21,2.25-3.35,3.34c-1.02,0.99-1.94,1.01-2.93,0.02
			c-2.42-2.39-4.82-4.79-7.2-7.22c-0.88-0.89-0.9-1.95-0.15-2.71c0.79-0.81,1.85-0.81,2.77,0.09c1.32,1.3,2.6,2.65,4.06,4.14
			c0-14.5,0-28.75,0-43.1C7.21,6.8,6.99,6.94,6.82,7.12c-1.16,1.17-2.3,2.36-3.48,3.5c-0.92,0.89-2,0.9-2.8,0.11
			c-0.76-0.75-0.72-1.8,0.16-2.7c2.41-2.45,4.82-4.89,7.27-7.3c0.96-0.95,1.89-0.97,2.86-0.02c2.49,2.46,4.96,4.95,7.41,7.46
			c0.79,0.81,0.77,1.82,0.08,2.54c-0.73,0.76-1.82,0.85-2.63,0.08c-1.42-1.35-2.76-2.78-4.29-4.34
			C11.39,20.91,11.39,35.15,11.39,49.63z"/>
	</g>
	<g>
		<path class="st0" d="M36.65,31.23c-0.92,0-1.72,0-2.6,0c0.19-0.85,0.44-1.66,0.54-2.48c0.28-2.19,0.54-4.38,0.75-6.57
			c0.14-1.48,0.17-2.97,0.27-4.45c0.05-0.69-0.33-1.16-0.77-1.59c-0.14-0.13-0.4-0.25-0.57-0.21c-0.75,0.2-1.42-0.04-2.06-0.37
			c-1.2-0.63-2.28-1.42-2.85-2.72c-0.26-0.59-0.53-1.19-0.8-1.82c1.87-0.31,3.62-0.21,5.06,1.15c0.36,0.34,0.6,0.8,0.91,1.19
			c0.48,0.6,0.55,1.23,0.38,1.99c-0.06,0.27,0.35,0.65,0.54,0.97c0.05-0.02,0.1-0.04,0.15-0.06c0.25-3.47,0.5-6.95,0.75-10.47
			c0.35,6.81,0.69,13.57,1.04,20.28c0.73-0.48,0.99-1.16,0.84-2.08c-0.09-0.57-0.12-1.13,0.46-1.57c0.32-0.24,0.45-0.72,0.68-1.08
			c1.39-2.19,3.52-2.76,5.93-2.72c0.54,0.01,1.09,0.08,1.67,0.13c-0.46,1.07-0.81,2.17-1.39,3.14c-0.44,0.73-1.15,1.29-1.77,1.91
			c-1.04,1.04-2.34,1.55-3.76,1.83c-0.14,0.03-0.3-0.01-0.43-0.07c-0.69-0.31-1.11,0.09-1.52,0.55c-0.75,0.86-0.99,1.88-1.08,2.98
			C36.95,29.79,36.77,30.49,36.65,31.23z"/>
		<polygon class="st0" points="24.96,31.23 46.94,31.23 41.13,49.41 29.07,49.41 		"/>
	</g>
</g>
</svg>
