<?xml version="1.0" encoding="utf-8"?>
<!-- Generator: Adobe Illustrator 24.2.0, SVG Export Plug-In . SVG Version: 6.00 Build 0)  -->
<svg version="1.1" id="Layer_1" xmlns="http://www.w3.org/2000/svg" xmlns:xlink="http://www.w3.org/1999/xlink" x="0px" y="0px"
	 viewBox="0 0 72.67 72.67" style="enable-background:new 0 0 72.67 72.67;" xml:space="preserve">
<style type="text/css">
	.st0{fill:#52875A;}
	.st1{fill:#FFFFFE;}
</style>
<circle class="st0" cx="36.34" cy="36.34" r="36.34"/>
<g>
	<path class="st1" d="M18.46,27.78c-1.27,0-2.38,0-3.61,0c0-2.56,0-5.04,0-7.63c14.3,0,28.57,0,42.96,0c0,2.51,0,4.99,0,7.61
		c-1.22,0-2.38,0-3.65,0c-1.33,4.63-2.63,9.17-3.92,13.71c-1.28,4.5-2.6,8.98-3.82,13.5c-0.28,1.04-0.72,1.38-1.79,1.37
		c-5.51-0.05-11.02-0.05-16.52,0c-1.13,0.01-1.59-0.32-1.9-1.45c-2.36-8.5-4.82-16.98-7.25-25.47
		C18.81,28.92,18.66,28.42,18.46,27.78z"/>
</g>
</svg>
