<?xml version="1.0" encoding="utf-8"?>
<!-- Generator: Adobe Illustrator 24.2.0, SVG Export Plug-In . SVG Version: 6.00 Build 0)  -->
<svg version="1.1" id="Layer_1" xmlns="http://www.w3.org/2000/svg" xmlns:xlink="http://www.w3.org/1999/xlink" x="0px" y="0px"
	 viewBox="0 0 72.67 72.67" style="enable-background:new 0 0 72.67 72.67;" xml:space="preserve">
<style type="text/css">
	.st0{fill:#52875A;}
	.st1{fill:#FFFFFE;}
</style>
<circle class="st0" cx="36.34" cy="36.34" r="36.34"/>
<g>
	<path class="st1" d="M36.08,29.16c0.02-0.29,0.04-0.51,0.04-0.73c0-3.08,0.02-6.16-0.02-9.23c-0.01-0.4-0.24-0.86-0.5-1.19
		c-0.39-0.5-0.89-0.92-1.34-1.37c-0.36-0.35-0.47-0.76-0.12-1.15c0.37-0.41,0.81-0.3,1.14,0.07c0.5,0.55,0.95,1.14,1.42,1.71
		c0.14-0.01,0.27-0.02,0.41-0.03c0.44-0.52,0.86-1.07,1.34-1.57c0.38-0.39,0.84-0.66,1.32-0.12c0.45,0.51,0.15,0.97-0.25,1.25
		c-1.66,1.16-1.97,2.75-1.87,4.67c0.15,2.84,0.04,5.69,0.04,8.54c0,0.2,0.03,0.39,0.14,0.64c0.77-0.99,2.13-1.39,2.22-3.03
		c0.12-2.21,0.88-4.25,2.63-5.79c1.37-1.21,2.97-1.84,4.75-1.89c2.8-0.08,5.39-0.83,7.84-2.16c0.84-0.45,1.37-0.24,1.4,0.63
		c0.08,2.48,0.15,4.96-0.85,7.34c-1.61,3.81-5.17,6-9.06,6.19c-1.84,0.09-3.63-0.19-5.28-1.07c-0.31-0.16-0.59-0.39-0.96-0.63
		c-0.89,0.89-1.89,1.72-2.64,2.73c-0.32,0.42-0.15,1.23-0.14,1.85c0,0.08,0.36,0.2,0.57,0.23c2.41,0.41,4.7,1.14,6.48,2.91
		c0.66,0.66,1.05,1.64,1.79,2.18c0.72,0.54,1.78,0.61,2.59,1.06c1.55,0.87,2.51,2.25,2.83,4.01c0.11,0.58,0.35,0.75,0.87,0.61
		c0.96-0.25,1.93-0.48,2.88-0.78c1.73-0.54,3.4-0.66,4.82,0.68c1.15,1.08,0.82,2.65-0.66,3.19c-2.76,1-5.52,2.02-8.34,2.87
		c-1.07,0.32-2.27,0.23-3.41,0.26c-1.75,0.04-3.52,0.14-5.11,0.86c-3.18,1.45-6.44,1.35-9.71,0.66c-3.27-0.7-6.51-0.78-9.75-0.02
		c-2.19,0.51-4.34,1.16-6.5,1.78c-0.98,0.28-1.41,0-1.41-1.02c0-2.74,0.01-5.49-0.01-8.23c-0.01-0.66,0.22-1.06,0.82-1.31
		c1.36-0.56,2.73-1.11,4.07-1.74c0.92-0.43,1.83-0.9,2.66-1.47c1.06-0.74,2.16-1.27,3.48-1.2c0.54,0.03,0.89-0.17,1.27-0.54
		c2.22-2.18,4.63-4.05,7.76-4.74c0.16-0.04,0.38-0.33,0.39-0.51c0.04-1.05,0.04-2.1,0-3.15c-0.01-0.22-0.22-0.52-0.42-0.62
		c-0.69-0.33-1.41-0.62-2.13-0.87c-0.27-0.09-0.61-0.07-0.88,0.01c-2.63,0.72-5.25,0.91-7.84-0.13c-3.01-1.21-4.7-3.55-5.43-6.6
		c-0.35-1.46-0.49-2.97-0.64-4.47c-0.04-0.36,0.19-0.86,0.47-1.08c0.17-0.14,0.72,0.05,1.01,0.23C22.06,19,24,19.7,26.16,19.78
		c4.1,0.14,7.09,2.92,7.58,7.25c0.13,1.18,0.61,1.68,1.62,1.93C35.58,29.01,35.79,29.08,36.08,29.16z M17.29,53.51
		c0.31-0.06,0.51-0.1,0.7-0.15c2.26-0.54,4.51-1.14,6.79-1.59c1.27-0.25,2.6-0.4,3.88-0.3c2.29,0.18,4.56,0.59,6.84,0.88
		c1.94,0.25,3.9,0.36,5.75-0.43c2.5-1.07,5.09-1.48,7.8-1.36c0.68,0.03,1.4-0.03,2.04-0.23c2.69-0.88,5.37-1.83,8.04-2.77
		c0.21-0.07,0.53-0.36,0.5-0.45c-0.08-0.24-0.28-0.51-0.51-0.61c-0.9-0.38-1.83-0.37-2.77-0.06c-0.87,0.29-1.74,0.64-2.64,0.76
		c-2.51,0.32-5.04,0.52-7.56,0.79c-0.24,0.03-0.52,0.09-0.69,0.24c-1.23,1.09-2.71,1.48-4.3,1.64c-2.69,0.27-5.39,0.18-8.04-0.27
		c-1.67-0.28-3.28-0.93-4.9-1.46c-0.48-0.16-0.9-0.5-0.6-1.11c0.28-0.57,0.75-0.5,1.25-0.26c0.58,0.27,1.16,0.54,1.77,0.73
		c2.85,0.86,5.8,1.01,8.74,0.93c1.44-0.04,2.94-0.02,4.26-0.8c0.38-0.22,0.91-0.37,0.77-0.99c-0.14-0.62-0.25-1.38-1.06-1.41
		c-1.08-0.03-2.25-0.14-3.24,0.2c-2.41,0.81-4.75,0.87-7.01-0.26c-1.32-0.65-2.5-1.59-3.73-2.4c-2-1.32-3.69-1.21-5.58,0.24
		c-0.72,0.55-1.56,0.95-2.39,1.33c-1.18,0.53-2.4,0.98-3.61,1.46c-0.44,0.17-0.58,0.48-0.57,0.96c0.03,2.03,0.01,4.05,0.01,6.08
		C17.24,53.02,17.27,53.21,17.29,53.51z"/>
</g>
</svg>
