<?xml version="1.0" encoding="utf-8"?>
<!-- Generator: Adobe Illustrator 24.2.0, SVG Export Plug-In . SVG Version: 6.00 Build 0)  -->
<svg version="1.1" id="Layer_1" xmlns="http://www.w3.org/2000/svg" xmlns:xlink="http://www.w3.org/1999/xlink" x="0px" y="0px"
	 viewBox="0 0 72.67 72.67" style="enable-background:new 0 0 72.67 72.67;" xml:space="preserve">
<style type="text/css">
	.st0{fill:#52875A;}
	.st1{fill:#FFFFFE;}
</style>
<circle class="st0" cx="36.34" cy="36.34" r="36.34"/>
<g>
	<path class="st1" d="M20.87,36.08c-0.12,8.78,6.94,16.44,16.45,16.19c8.84-0.23,15.63-7.29,15.63-15.88
		c-0.01-9.56-7.57-16.47-16.55-16.19C27.28,20.48,20.78,28.06,20.87,36.08z M37.85,56.54c0-0.48,0-0.97,0-1.45
		c-0.01-0.57-0.29-0.93-0.85-0.97c-0.56-0.04-0.97,0.23-0.99,0.81c-0.04,1.04-0.04,2.08,0,3.11c0.02,0.54,0.42,0.82,0.94,0.8
		c0.55-0.03,0.89-0.35,0.91-0.93C37.86,57.46,37.85,57,37.85,56.54z M20.23,28.98c0.2-0.21,0.63-0.46,0.67-0.75
		c0.05-0.34-0.16-0.88-0.43-1.06c-0.79-0.5-1.65-0.89-2.51-1.28c-0.52-0.24-1.04-0.17-1.31,0.38c-0.28,0.57-0.08,1.05,0.48,1.34
		c0.81,0.42,1.64,0.81,2.46,1.2C19.73,28.87,19.89,28.89,20.23,28.98z M57.33,45.6c-0.07-0.12-0.17-0.44-0.38-0.55
		c-0.93-0.51-1.88-1-2.86-1.42c-0.47-0.2-0.99,0.02-1.09,0.53c-0.07,0.34,0.06,0.95,0.3,1.1c0.88,0.55,1.82,1,2.78,1.39
		C56.73,46.92,57.35,46.42,57.33,45.6z M44.2,19.54c0.22,0.21,0.45,0.55,0.77,0.71c0.49,0.23,0.89-0.06,1.13-0.5
		c0.43-0.81,0.82-1.63,1.22-2.46c0.26-0.54,0.14-1.03-0.38-1.3c-0.56-0.29-1.05-0.1-1.34,0.47c-0.41,0.82-0.81,1.64-1.21,2.46
		C44.32,19.05,44.3,19.21,44.2,19.54z M27.58,56.63c0.14-0.11,0.48-0.24,0.62-0.5c0.48-0.86,0.92-1.76,1.31-2.66
		c0.23-0.52,0-0.95-0.5-1.2c-0.5-0.24-0.94-0.06-1.18,0.38c-0.49,0.89-0.94,1.8-1.33,2.74C26.25,56.02,26.75,56.66,27.58,56.63z
		 M29.81,19.4c-0.65-1.2-1.18-2.29-1.83-3.3c-0.12-0.18-0.85-0.21-1.06-0.04c-0.25,0.21-0.44,0.79-0.33,1.1
		c0.34,0.92,0.78,1.82,1.3,2.66c0.17,0.27,0.73,0.45,1.07,0.39C29.26,20.16,29.49,19.72,29.81,19.4z M57.33,26.96
		c0.04-0.95-0.67-1.38-1.45-1.03c-0.81,0.36-1.6,0.77-2.39,1.17c-0.57,0.29-0.76,0.76-0.48,1.33c0.27,0.54,0.77,0.63,1.3,0.38
		c0.83-0.39,1.65-0.77,2.45-1.22C57.04,27.44,57.22,27.1,57.33,26.96z M18.75,32.96c0.22-0.23,0.6-0.47,0.74-0.81
		c0.19-0.47-0.02-0.95-0.54-1.1c-1-0.29-2.01-0.57-3.03-0.71c-0.29-0.04-0.79,0.34-0.95,0.66c-0.23,0.44-0.02,0.95,0.49,1.11
		C16.48,32.42,17.52,32.65,18.75,32.96z M20.97,44.72c-0.01-0.94-0.71-1.35-1.44-1.02c-0.81,0.36-1.6,0.76-2.39,1.16
		c-0.55,0.28-0.79,0.75-0.51,1.32c0.29,0.59,0.82,0.63,1.36,0.38c0.8-0.37,1.61-0.74,2.38-1.18C20.66,45.21,20.84,44.86,20.97,44.72
		z M47.55,55.73c-0.62-1.17-1.15-2.27-1.79-3.28c-0.12-0.19-0.84-0.23-1.06-0.05c-0.26,0.21-0.48,0.8-0.37,1.09
		c0.35,0.94,0.81,1.87,1.35,2.72c0.16,0.26,0.75,0.39,1.1,0.34C47.06,56.49,47.26,56.05,47.55,55.73z M42.96,15.02
		c-0.24-0.23-0.49-0.62-0.83-0.74c-0.52-0.19-0.96,0.12-1.11,0.65c-0.27,0.95-0.5,1.91-0.69,2.88c-0.1,0.5,0.17,0.98,0.68,1.01
		c0.35,0.02,0.96-0.2,1.05-0.45C42.44,17.34,42.65,16.26,42.96,15.02z M15.69,42.22c1.25-0.3,2.29-0.52,3.3-0.83
		c0.5-0.15,0.66-0.63,0.51-1.12c-0.15-0.5-0.55-0.75-1.06-0.65c-0.97,0.19-1.93,0.41-2.88,0.67c-0.49,0.14-0.8,0.57-0.62,1.06
		C15.08,41.71,15.46,41.97,15.69,42.22z M58.95,41.27c0.02-0.63-0.39-0.9-0.92-1.03c-0.78-0.2-1.58-0.36-2.36-0.56
		c-0.6-0.15-1.07-0.01-1.3,0.59c-0.21,0.57,0.08,1.06,0.77,1.25c0.88,0.24,1.76,0.45,2.65,0.63C58.42,42.28,58.93,41.87,58.95,41.27
		z M32.19,58.27c0.17-0.2,0.57-0.49,0.7-0.88c0.28-0.81,0.42-1.67,0.61-2.51c0.13-0.57-0.04-1.04-0.62-1.21
		c-0.61-0.18-1.05,0.09-1.22,0.7c-0.24,0.91-0.47,1.82-0.65,2.74C30.89,57.74,31.31,58.24,32.19,58.27z M55.13,32.97
		c1.22-0.3,2.24-0.51,3.23-0.8c0.51-0.15,0.69-0.59,0.58-1.09c-0.12-0.53-0.52-0.79-1.02-0.7c-0.99,0.18-1.98,0.42-2.95,0.68
		c-0.51,0.14-0.78,0.59-0.59,1.06C54.51,32.48,54.91,32.73,55.13,32.97z M32.27,14.24c-0.88-0.03-1.32,0.43-1.2,1.08
		c0.18,0.97,0.42,1.93,0.68,2.88c0.15,0.54,0.58,0.77,1.12,0.64c0.56-0.14,0.79-0.56,0.69-1.1c-0.19-0.94-0.38-1.89-0.67-2.81
		C32.78,14.62,32.4,14.38,32.27,14.24z M23.21,24.36c-0.06-0.11-0.14-0.4-0.33-0.57c-0.75-0.65-1.52-1.27-2.3-1.87
		c-0.47-0.35-0.93-0.21-1.27,0.22c-0.34,0.42-0.3,0.88,0.1,1.23c0.77,0.66,1.55,1.32,2.38,1.9C22.38,25.7,23.17,25.25,23.21,24.36z
		 M51.48,25.45c0.28-0.04,0.4-0.02,0.47-0.07c0.91-0.72,1.84-1.42,2.68-2.22c0.16-0.15,0.07-0.83-0.14-1.04
		c-0.21-0.22-0.82-0.35-1.05-0.21c-0.89,0.58-1.72,1.26-2.5,1.98c-0.2,0.19-0.24,0.73-0.13,1.02
		C50.91,25.17,51.31,25.32,51.48,25.45z M23.33,48.01c-0.24-0.32-0.38-0.72-0.62-0.78c-0.34-0.1-0.83-0.08-1.12,0.1
		c-0.74,0.49-1.4,1.08-2.09,1.65c-0.47,0.39-0.66,0.86-0.22,1.38c0.42,0.5,0.9,0.5,1.4,0.1c0.67-0.54,1.36-1.06,2.02-1.62
		C22.94,48.64,23.09,48.34,23.33,48.01z M51.41,47.08c-0.13,0.1-0.51,0.26-0.62,0.52c-0.11,0.27-0.08,0.79,0.11,0.97
		c0.8,0.74,1.65,1.43,2.54,2.05c0.2,0.14,0.73,0.06,0.95-0.12c0.22-0.18,0.44-0.8,0.35-0.88c-0.98-0.89-2.01-1.7-3.04-2.54
		C51.68,47.07,51.65,47.08,51.41,47.08z M48.81,22.51c0.1-0.04,0.37-0.08,0.5-0.23c0.69-0.81,1.4-1.62,1.97-2.51
		c0.16-0.24,0.01-0.88-0.23-1.11c-0.2-0.19-0.89-0.22-1.06-0.03c-0.77,0.8-1.49,1.67-2.11,2.59C47.51,21.78,48.02,22.5,48.81,22.51z
		 M25.23,22.65c0.3-0.24,0.68-0.4,0.76-0.65c0.1-0.32,0.07-0.79-0.11-1.05c-0.51-0.76-1.11-1.45-1.7-2.15
		c-0.37-0.44-0.85-0.59-1.34-0.2c-0.5,0.4-0.53,0.89-0.13,1.4c0.55,0.7,1.09,1.41,1.67,2.08C24.58,22.3,24.89,22.43,25.23,22.65z
		 M25.04,49.99c-0.11,0.05-0.39,0.11-0.54,0.28c-0.66,0.77-1.3,1.56-1.91,2.37c-0.32,0.43-0.2,0.89,0.2,1.22
		c0.38,0.32,0.86,0.32,1.17-0.03c0.72-0.82,1.43-1.65,2.03-2.56C26.36,50.7,25.85,50.01,25.04,49.99z M48.86,49.98
		c-0.94,0.01-1.39,0.83-0.93,1.48c0.55,0.79,1.17,1.53,1.8,2.27c0.38,0.45,0.87,0.54,1.34,0.13c0.46-0.4,0.48-0.87,0.1-1.35
		c-0.57-0.72-1.12-1.44-1.72-2.14C49.27,50.17,48.97,50.06,48.86,49.98z M42.8,57.05c-0.2-0.83-0.41-1.83-0.69-2.8
		c-0.16-0.55-0.63-0.73-1.16-0.58c-0.51,0.15-0.74,0.56-0.64,1.07c0.19,0.95,0.4,1.89,0.66,2.82c0.13,0.5,0.51,0.77,1.04,0.69
		C42.57,58.16,42.82,57.78,42.8,57.05z M16.66,37.16c0.51,0,1.02,0.02,1.52-0.01c0.57-0.03,0.88-0.38,0.87-0.95
		c-0.01-0.53-0.3-0.88-0.84-0.89c-1.01-0.03-2.03-0.03-3.04,0c-0.53,0.02-0.84,0.37-0.84,0.9c0,0.55,0.31,0.91,0.88,0.94
		C15.69,37.18,16.18,37.16,16.66,37.16z M57.12,37.19C57.12,37.18,57.12,37.18,57.12,37.19c0.53,0,1.07,0.03,1.6-0.01
		c0.53-0.04,0.9-0.41,0.79-0.91c-0.07-0.34-0.45-0.85-0.73-0.88c-1.05-0.11-2.13-0.08-3.19-0.03c-0.52,0.03-0.8,0.42-0.77,0.95
		c0.03,0.53,0.32,0.85,0.86,0.88C56.16,37.21,56.64,37.19,57.12,37.19z M36.01,15.96c0,0.48-0.02,0.97,0,1.45
		c0.03,0.59,0.33,0.97,0.95,0.96c0.58,0,0.9-0.35,0.91-0.92c0.02-0.96,0.02-1.93,0-2.9c-0.02-0.58-0.4-0.9-0.94-0.9
		c-0.54,0.01-0.89,0.36-0.92,0.93C35.99,15.04,36.01,15.5,36.01,15.96z"/>
	<path class="st1" d="M20.87,36.08c-0.09-8.03,6.41-15.6,15.53-15.88c8.98-0.28,16.54,6.64,16.55,16.19
		c0.01,8.59-6.78,15.64-15.63,15.88C27.82,52.53,20.75,44.87,20.87,36.08z M22.79,36.2c-0.01,7.83,6.18,14.08,14.07,14.19
		c7.69,0.11,14.19-6.37,14.17-14.11c-0.02-7.83-6.38-14.1-14.05-14.14C29.21,22.09,22.73,28.53,22.79,36.2z"/>
	<path class="st1" d="M37.85,56.54c0,0.46,0.01,0.92,0,1.37c-0.02,0.58-0.36,0.9-0.91,0.93c-0.52,0.02-0.91-0.26-0.94-0.8
		c-0.04-1.04-0.04-2.08,0-3.11c0.02-0.58,0.44-0.85,0.99-0.81c0.57,0.04,0.85,0.41,0.85,0.97C37.86,55.58,37.85,56.06,37.85,56.54z"
		/>
	<path class="st1" d="M20.23,28.98c-0.34-0.09-0.49-0.11-0.63-0.17c-0.82-0.39-1.65-0.79-2.46-1.2c-0.56-0.29-0.76-0.77-0.48-1.34
		c0.27-0.55,0.8-0.62,1.31-0.38c0.85,0.39,1.72,0.78,2.51,1.28c0.27,0.18,0.48,0.72,0.43,1.06C20.86,28.52,20.43,28.77,20.23,28.98z
		"/>
	<path class="st1" d="M57.33,45.6c0.02,0.82-0.59,1.32-1.24,1.05c-0.96-0.39-1.91-0.84-2.78-1.39c-0.25-0.15-0.37-0.76-0.3-1.1
		c0.1-0.51,0.62-0.73,1.09-0.53c0.98,0.42,1.93,0.91,2.86,1.42C57.16,45.16,57.25,45.48,57.33,45.6z"/>
	<path class="st1" d="M44.2,19.54c0.1-0.33,0.12-0.48,0.19-0.62c0.4-0.82,0.79-1.65,1.21-2.46c0.29-0.57,0.78-0.76,1.34-0.47
		c0.53,0.27,0.64,0.76,0.38,1.3c-0.4,0.82-0.79,1.65-1.22,2.46c-0.23,0.44-0.63,0.73-1.13,0.5C44.65,20.09,44.42,19.75,44.2,19.54z"
		/>
	<path class="st1" d="M27.58,56.63c-0.83,0.03-1.34-0.62-1.07-1.24c0.4-0.93,0.85-1.85,1.33-2.74c0.24-0.44,0.67-0.62,1.18-0.38
		c0.51,0.25,0.73,0.68,0.5,1.2c-0.4,0.91-0.83,1.8-1.31,2.66C28.07,56.39,27.72,56.53,27.58,56.63z"/>
	<path class="st1" d="M29.81,19.4c-0.32,0.32-0.55,0.76-0.84,0.81c-0.34,0.05-0.91-0.12-1.07-0.39c-0.52-0.83-0.96-1.73-1.3-2.66
		c-0.11-0.3,0.08-0.88,0.33-1.1c0.21-0.18,0.94-0.15,1.06,0.04C28.63,17.11,29.16,18.2,29.81,19.4z"/>
	<path class="st1" d="M57.33,26.96c-0.12,0.14-0.29,0.47-0.57,0.63c-0.79,0.45-1.62,0.83-2.45,1.22c-0.53,0.25-1.03,0.16-1.3-0.38
		c-0.28-0.57-0.09-1.04,0.48-1.33c0.79-0.4,1.58-0.81,2.39-1.17C56.66,25.58,57.37,26.01,57.33,26.96z"/>
	<path class="st1" d="M18.75,32.96c-1.23-0.31-2.27-0.54-3.29-0.84c-0.51-0.15-0.73-0.67-0.49-1.11c0.17-0.31,0.66-0.7,0.95-0.66
		c1.02,0.14,2.03,0.42,3.03,0.71c0.52,0.15,0.73,0.63,0.54,1.1C19.35,32.49,18.97,32.73,18.75,32.96z"/>
	<path class="st1" d="M20.97,44.72c-0.12,0.14-0.31,0.49-0.6,0.66c-0.77,0.44-1.57,0.81-2.38,1.18c-0.54,0.25-1.08,0.21-1.36-0.38
		c-0.28-0.58-0.04-1.04,0.51-1.32c0.79-0.4,1.58-0.8,2.39-1.16C20.26,43.37,20.95,43.78,20.97,44.72z"/>
	<path class="st1" d="M47.55,55.73c-0.29,0.32-0.49,0.76-0.76,0.81c-0.35,0.06-0.94-0.08-1.1-0.34c-0.54-0.85-1-1.77-1.35-2.72
		c-0.11-0.29,0.11-0.88,0.37-1.09c0.22-0.17,0.94-0.13,1.06,0.05C46.4,53.46,46.93,54.55,47.55,55.73z"/>
	<path class="st1" d="M42.96,15.02c-0.31,1.24-0.52,2.32-0.89,3.34c-0.09,0.26-0.7,0.48-1.05,0.45c-0.52-0.03-0.78-0.5-0.68-1.01
		c0.19-0.97,0.42-1.93,0.69-2.88c0.15-0.53,0.59-0.84,1.11-0.65C42.47,14.4,42.72,14.79,42.96,15.02z"/>
	<path class="st1" d="M15.69,42.22c-0.23-0.25-0.61-0.52-0.74-0.87c-0.18-0.49,0.12-0.92,0.62-1.06c0.95-0.26,1.91-0.48,2.88-0.67
		c0.51-0.1,0.91,0.15,1.06,0.65c0.15,0.49-0.01,0.97-0.51,1.12C17.97,41.71,16.93,41.92,15.69,42.22z"/>
	<path class="st1" d="M58.95,41.27c-0.02,0.6-0.53,1.01-1.15,0.88c-0.89-0.19-1.78-0.39-2.65-0.63c-0.69-0.19-0.99-0.68-0.77-1.25
		c0.23-0.6,0.7-0.74,1.3-0.59c0.78,0.19,1.58,0.36,2.36,0.56C58.56,40.37,58.96,40.64,58.95,41.27z"/>
	<path class="st1" d="M32.19,58.27c-0.88-0.02-1.31-0.53-1.18-1.16c0.19-0.92,0.41-1.83,0.65-2.74c0.16-0.62,0.61-0.89,1.22-0.7
		c0.58,0.17,0.75,0.64,0.62,1.21c-0.19,0.84-0.33,1.7-0.61,2.51C32.76,57.77,32.36,58.07,32.19,58.27z"/>
	<path class="st1" d="M55.13,32.97c-0.22-0.24-0.62-0.49-0.76-0.84c-0.19-0.47,0.08-0.93,0.59-1.06c0.98-0.27,1.96-0.5,2.95-0.68
		c0.5-0.09,0.9,0.17,1.02,0.7c0.12,0.51-0.07,0.95-0.58,1.09C57.37,32.46,56.35,32.67,55.13,32.97z"/>
	<path class="st1" d="M32.27,14.24c0.13,0.14,0.51,0.38,0.61,0.7c0.29,0.92,0.49,1.86,0.67,2.81c0.11,0.54-0.13,0.96-0.69,1.1
		c-0.55,0.13-0.98-0.1-1.12-0.64c-0.26-0.95-0.5-1.91-0.68-2.88C30.95,14.67,31.4,14.21,32.27,14.24z"/>
	<path class="st1" d="M23.21,24.36c-0.03,0.89-0.83,1.34-1.44,0.91c-0.83-0.58-1.61-1.24-2.38-1.9c-0.4-0.34-0.43-0.81-0.1-1.23
		c0.35-0.43,0.81-0.57,1.27-0.22c0.79,0.6,1.56,1.22,2.3,1.87C23.06,23.96,23.14,24.25,23.21,24.36z"/>
	<path class="st1" d="M51.48,25.45c-0.17-0.13-0.57-0.28-0.67-0.54c-0.11-0.3-0.07-0.83,0.13-1.02c0.78-0.72,1.61-1.4,2.5-1.98
		c0.22-0.15,0.84-0.01,1.05,0.21c0.21,0.22,0.3,0.89,0.14,1.04c-0.84,0.8-1.77,1.5-2.68,2.22C51.88,25.43,51.76,25.41,51.48,25.45z"
		/>
	<path class="st1" d="M23.33,48.01c-0.24,0.33-0.39,0.63-0.62,0.83c-0.65,0.56-1.34,1.08-2.02,1.62c-0.5,0.4-0.98,0.4-1.4-0.1
		c-0.44-0.53-0.25-1,0.22-1.38c0.68-0.57,1.35-1.17,2.09-1.65c0.28-0.19,0.78-0.2,1.12-0.1C22.95,47.29,23.09,47.69,23.33,48.01z"/>
	<path class="st1" d="M51.41,47.08c0.24,0,0.27-0.01,0.29,0c1.02,0.83,2.06,1.65,3.04,2.54c0.09,0.08-0.12,0.7-0.35,0.88
		c-0.22,0.18-0.75,0.26-0.95,0.12c-0.89-0.62-1.74-1.31-2.54-2.05c-0.19-0.17-0.22-0.69-0.11-0.97
		C50.9,47.34,51.28,47.18,51.41,47.08z"/>
	<path class="st1" d="M48.81,22.51c-0.79-0.01-1.3-0.73-0.92-1.29c0.62-0.92,1.34-1.79,2.11-2.59c0.18-0.18,0.87-0.16,1.06,0.03
		c0.23,0.23,0.38,0.87,0.23,1.11c-0.58,0.89-1.28,1.7-1.97,2.51C49.18,22.43,48.91,22.47,48.81,22.51z"/>
	<path class="st1" d="M25.23,22.65c-0.34-0.22-0.65-0.35-0.85-0.58c-0.58-0.67-1.12-1.38-1.67-2.08c-0.4-0.51-0.37-1,0.13-1.4
		c0.49-0.39,0.97-0.24,1.34,0.2c0.59,0.7,1.19,1.4,1.7,2.15c0.18,0.27,0.21,0.74,0.11,1.05C25.91,22.26,25.54,22.41,25.23,22.65z"/>
	<path class="st1" d="M25.04,49.99c0.82,0.02,1.32,0.72,0.95,1.28c-0.6,0.91-1.31,1.74-2.03,2.56c-0.31,0.36-0.79,0.36-1.17,0.03
		c-0.39-0.34-0.52-0.79-0.2-1.22c0.61-0.81,1.25-1.6,1.91-2.37C24.64,50.09,24.93,50.04,25.04,49.99z"/>
	<path class="st1" d="M48.86,49.98c0.11,0.07,0.41,0.18,0.59,0.39c0.6,0.69,1.15,1.42,1.72,2.14c0.38,0.48,0.35,0.95-0.1,1.35
		c-0.47,0.41-0.96,0.32-1.34-0.13c-0.62-0.73-1.24-1.48-1.8-2.27C47.47,50.81,47.92,49.99,48.86,49.98z"/>
	<path class="st1" d="M42.8,57.05c0.02,0.72-0.23,1.11-0.8,1.2c-0.53,0.09-0.91-0.19-1.04-0.69c-0.25-0.93-0.47-1.87-0.66-2.82
		c-0.1-0.51,0.12-0.92,0.64-1.07c0.53-0.15,1.01,0.03,1.16,0.58C42.39,55.23,42.6,56.22,42.8,57.05z"/>
	<path class="st1" d="M16.66,37.16c-0.48,0-0.97,0.02-1.45,0c-0.58-0.03-0.88-0.39-0.88-0.94c0-0.53,0.31-0.88,0.84-0.9
		c1.01-0.03,2.03-0.03,3.04,0c0.54,0.01,0.83,0.36,0.84,0.89c0.01,0.57-0.29,0.91-0.87,0.95C17.67,37.19,17.16,37.16,16.66,37.16z"
		/>
	<path class="st1" d="M57.12,37.19c-0.48,0-0.97,0.02-1.45-0.01c-0.54-0.03-0.83-0.34-0.86-0.88c-0.03-0.54,0.25-0.93,0.77-0.95
		c1.06-0.05,2.14-0.08,3.19,0.03c0.28,0.03,0.66,0.54,0.73,0.88c0.1,0.5-0.26,0.87-0.79,0.91C58.19,37.21,57.66,37.18,57.12,37.19
		C57.12,37.18,57.12,37.18,57.12,37.19z"/>
	<path class="st1" d="M36.01,15.96c0-0.46-0.02-0.92,0.01-1.37c0.03-0.57,0.38-0.92,0.92-0.93c0.54-0.01,0.92,0.32,0.94,0.9
		c0.03,0.96,0.03,1.93,0,2.9c-0.01,0.56-0.34,0.91-0.91,0.92c-0.62,0-0.92-0.37-0.95-0.96C35.99,16.92,36.01,16.44,36.01,15.96z"/>
	<path class="st1" d="M22.79,36.2c-0.06-7.67,6.42-14.1,14.19-14.06c7.67,0.04,14.03,6.31,14.05,14.14
		c0.02,7.74-6.47,14.21-14.17,14.11C28.97,50.27,22.78,44.03,22.79,36.2z"/>
</g>
</svg>
