<?xml version="1.0" encoding="utf-8"?>
<!-- Generator: Adobe Illustrator 24.2.0, SVG Export Plug-In . SVG Version: 6.00 Build 0)  -->
<svg version="1.1" id="Layer_1" xmlns="http://www.w3.org/2000/svg" xmlns:xlink="http://www.w3.org/1999/xlink" x="0px" y="0px"
	 viewBox="0 0 59.44 63.26" style="enable-background:new 0 0 59.44 63.26;" xml:space="preserve">
<style type="text/css">
	.st0{fill:#52875A;}
</style>
<g>
	<path class="st0" d="M29.72,63.26c-7.83,0-15.66,0.01-23.48,0c-4.78,0-7.53-3.87-5.63-8.23C5.4,44.03,13.75,37.45,25.68,35.92
		c14.34-1.85,27.23,5.6,33.11,18.81c1.96,4.39-0.65,8.52-5.42,8.53C45.49,63.27,37.6,63.26,29.72,63.26z M29.57,59.26
		c7.82,0,15.65,0.01,23.47,0c2.13,0,2.88-1.08,2-2.97c-3.77-8.1-9.77-13.66-18.55-15.84c-13.29-3.29-26.99,3.4-32.05,15.55
		c-0.93,2.23-0.26,3.27,2.15,3.27C14.25,59.26,21.91,59.26,29.57,59.26z"/>
	<path class="st0" d="M13.96,15.78C13.87,7.26,20.89,0.15,29.54,0c8.64-0.15,15.79,6.96,15.91,15.82
		c0.12,8.54-6.95,15.73-15.52,15.8C21,31.69,14.06,24.8,13.96,15.78z M17.91,15.95c0.25,7.03,5.45,11.91,12.44,11.68
		c6.22-0.21,11.39-5.79,11.12-12c-0.28-6.6-5.65-11.8-11.95-11.59C22.97,4.25,17.69,9.66,17.91,15.95z"/>
</g>
<g>
</g>
<g>
</g>
<g>
</g>
<g>
</g>
<g>
</g>
<g>
</g>
</svg>
