<?xml version="1.0" encoding="utf-8"?>
<!-- Generator: Adobe Illustrator 24.2.0, SVG Export Plug-In . SVG Version: 6.00 Build 0)  -->
<svg version="1.1" id="Layer_1" xmlns="http://www.w3.org/2000/svg" xmlns:xlink="http://www.w3.org/1999/xlink" x="0px" y="0px"
	 viewBox="0 0 72.67 72.67" style="enable-background:new 0 0 72.67 72.67;" xml:space="preserve">
<style type="text/css">
	.st0{fill:#52875A;}
	.st1{fill:#FFFFFE;}
</style>
<circle class="st0" cx="36.34" cy="36.34" r="36.34"/>
<g>
	<path class="st1" d="M36.66,11.86c1.18,1.44,2.28,2.73,3.32,4.06c3.56,4.54,7.05,9.14,9.8,14.22c1.11,2.05,2.11,4.19,2.9,6.38
		c1.43,3.93,0.83,7.8-0.97,11.47c-2.49,5.09-6.57,8.3-12.13,9.35c-6.77,1.28-13.58-1.77-17.25-7.82c-1.86-3.07-2.7-6.41-2.54-9.97
		c0.11-2.57,1.22-4.88,2.35-7.14c2.4-4.79,5.44-9.17,8.71-13.39c1.62-2.1,3.3-4.15,4.95-6.22C36.02,12.52,36.28,12.27,36.66,11.86z
		 M49.47,40.71c-0.08-0.76-0.07-1.56-0.3-2.27c-0.11-0.34-0.76-0.8-1.04-0.73c-0.38,0.09-0.7,0.62-0.93,1.03
		c-0.11,0.19,0.05,0.54,0.07,0.81c0.44,4.49-1.27,8.97-6.69,10.48c-0.41,0.12-0.92,0.13-1.21,0.39c-0.31,0.28-0.62,0.85-0.53,1.17
		c0.09,0.33,0.73,0.8,1.04,0.74c3.44-0.65,6.32-2.2,8.06-5.4C49,45,49.42,42.91,49.47,40.71z"/>
	<path class="st0" d="M49.47,40.71c-0.05,2.2-0.48,4.29-1.53,6.23c-1.74,3.2-4.63,4.75-8.06,5.4c-0.31,0.06-0.95-0.41-1.04-0.74
		c-0.09-0.33,0.22-0.9,0.53-1.17c0.29-0.26,0.8-0.28,1.21-0.39c5.42-1.51,7.13-5.99,6.69-10.48c-0.03-0.28-0.18-0.62-0.07-0.81
		c0.23-0.41,0.55-0.93,0.93-1.03c0.29-0.07,0.93,0.39,1.04,0.73C49.4,39.15,49.39,39.95,49.47,40.71z"/>
</g>
</svg>
